<svg xmlns="http://www.w3.org/2000/svg" xmlns:xlink="http://www.w3.org/1999/xlink" width="300" zoomAndPan="magnify" viewBox="0 0 224.87999 225" height="300" preserveAspectRatio="xMidYMid meet" version="1.0"><defs><g/><clipPath id="626c6babce"><path d="M 43.445312 16.800781 L 181 16.800781 L 181 173.46875 L 43.445312 173.46875 Z M 43.445312 16.800781 " clip-rule="nonzero"/></clipPath></defs><g clip-path="url(#626c6babce)"><path fill="#50ace4" d="M 180.398438 114.113281 C 179.445312 112.140625 177.074219 111.320312 175.113281 112.277344 L 161.429688 118.945312 L 149.359375 111.960938 L 158.230469 107.640625 C 160.195312 106.683594 161.011719 104.308594 160.058594 102.339844 C 159.101562 100.367188 156.734375 99.550781 154.769531 100.507812 L 141.085938 107.171875 L 135.332031 103.84375 L 135.332031 86.453125 L 141.085938 83.121094 L 154.769531 89.789062 C 155.324219 90.0625 155.917969 90.191406 156.496094 90.191406 C 157.964844 90.191406 159.375 89.367188 160.058594 87.957031 C 161.011719 85.988281 160.195312 83.613281 158.230469 82.65625 L 149.359375 78.332031 L 161.429688 71.351562 L 175.113281 78.015625 C 175.667969 78.289062 176.257812 78.417969 176.835938 78.417969 C 178.304688 78.417969 179.714844 77.59375 180.398438 76.183594 C 181.355469 74.210938 180.535156 71.839844 178.570312 70.882812 L 169.703125 66.5625 L 178.542969 61.445312 C 180.433594 60.351562 181.082031 57.921875 179.992188 56.027344 C 178.898438 54.128906 176.476562 53.480469 174.585938 54.574219 L 165.746094 59.691406 L 166.445312 49.832031 C 166.601562 47.644531 164.960938 45.75 162.78125 45.59375 C 160.605469 45.4375 158.707031 47.082031 158.554688 49.269531 L 157.472656 64.480469 L 145.40625 71.464844 L 146.105469 61.605469 C 146.261719 59.421875 144.621094 57.519531 142.441406 57.367188 C 140.257812 57.207031 138.367188 58.855469 138.210938 61.039062 L 137.128906 76.253906 L 131.375 79.582031 L 116.351562 70.890625 L 116.351562 64.226562 L 128.953125 55.683594 C 130.765625 54.453125 131.238281 51.988281 130.015625 50.175781 C 128.789062 48.359375 126.328125 47.882812 124.519531 49.109375 L 116.351562 54.648438 L 116.351562 40.683594 L 128.953125 32.136719 C 130.765625 30.910156 131.238281 28.445312 130.015625 26.628906 C 128.789062 24.8125 126.328125 24.339844 124.519531 25.566406 L 116.351562 31.105469 L 116.351562 20.871094 C 116.351562 18.679688 114.582031 16.90625 112.394531 16.90625 C 110.210938 16.90625 108.441406 18.679688 108.441406 20.871094 L 108.441406 31.105469 L 100.273438 25.566406 C 98.460938 24.339844 96.003906 24.816406 94.777344 26.628906 C 93.554688 28.445312 94.027344 30.910156 95.839844 32.136719 L 108.441406 40.683594 L 108.441406 54.648438 L 100.273438 49.109375 C 98.460938 47.882812 96.003906 48.359375 94.777344 50.175781 C 93.554688 51.988281 94.027344 54.453125 95.839844 55.683594 L 108.441406 64.226562 L 108.441406 70.890625 L 93.417969 79.582031 L 87.664062 76.253906 L 86.582031 61.039062 C 86.425781 58.855469 84.53125 57.207031 82.351562 57.367188 C 80.171875 57.519531 78.53125 59.421875 78.6875 61.605469 L 79.386719 71.464844 L 67.320312 64.480469 L 66.238281 49.269531 C 66.082031 47.082031 64.179688 45.4375 62.011719 45.59375 C 59.832031 45.75 58.191406 47.644531 58.34375 49.832031 L 59.046875 59.691406 L 50.207031 54.574219 C 48.3125 53.480469 45.894531 54.128906 44.800781 56.027344 C 43.707031 57.921875 44.355469 60.351562 46.25 61.445312 L 55.089844 66.5625 L 46.222656 70.882812 C 44.257812 71.839844 43.4375 74.210938 44.390625 76.183594 C 45.078125 77.59375 46.488281 78.417969 47.953125 78.417969 C 48.535156 78.417969 49.125 78.289062 49.683594 78.015625 L 63.363281 71.351562 L 75.429688 78.332031 L 66.5625 82.65625 C 64.597656 83.613281 63.777344 85.988281 64.734375 87.957031 C 65.417969 89.367188 66.828125 90.191406 68.296875 90.191406 C 68.875 90.191406 69.464844 90.0625 70.023438 89.789062 L 83.707031 83.121094 L 89.460938 86.453125 L 89.460938 103.839844 L 83.707031 107.171875 L 70.023438 100.507812 C 68.058594 99.550781 65.691406 100.367188 64.734375 102.339844 C 63.777344 104.308594 64.597656 106.683594 66.5625 107.640625 L 75.429688 111.960938 L 63.363281 118.945312 L 49.683594 112.277344 C 47.714844 111.324219 45.347656 112.140625 44.390625 114.113281 C 43.4375 116.082031 44.257812 118.457031 46.222656 119.414062 L 55.089844 123.734375 L 46.25 128.851562 C 44.355469 129.945312 43.707031 132.371094 44.800781 134.269531 C 45.535156 135.542969 46.863281 136.253906 48.230469 136.253906 C 48.902344 136.253906 49.582031 136.082031 50.207031 135.722656 L 59.046875 130.605469 L 58.34375 140.464844 C 58.191406 142.648438 59.832031 144.546875 62.011719 144.703125 C 62.105469 144.707031 62.203125 144.710938 62.296875 144.710938 C 64.351562 144.710938 66.089844 143.117188 66.238281 141.027344 L 67.320312 125.816406 L 79.386719 118.832031 L 78.6875 128.691406 C 78.53125 130.875 80.171875 132.773438 82.351562 132.929688 C 82.449219 132.9375 82.542969 132.941406 82.636719 132.941406 C 84.695312 132.941406 86.433594 131.34375 86.582031 129.253906 L 87.664062 114.042969 L 93.417969 110.710938 L 108.441406 119.40625 L 108.441406 126.066406 L 95.839844 134.613281 C 94.027344 135.839844 93.554688 138.304688 94.777344 140.121094 C 96.003906 141.933594 98.464844 142.410156 100.273438 141.183594 L 108.441406 135.644531 L 108.441406 149.613281 L 95.839844 158.160156 C 94.027344 159.386719 93.554688 161.851562 94.777344 163.667969 C 96.003906 165.480469 98.464844 165.957031 100.273438 164.730469 L 108.441406 159.191406 L 108.441406 169.425781 C 108.441406 171.613281 110.210938 173.390625 112.394531 173.390625 C 114.582031 173.390625 116.351562 171.613281 116.351562 169.425781 L 116.351562 159.191406 L 124.519531 164.730469 C 125.199219 165.191406 125.96875 165.410156 126.734375 165.410156 C 128.003906 165.410156 129.25 164.800781 130.015625 163.667969 C 131.238281 161.851562 130.765625 159.386719 128.953125 158.160156 L 116.351562 149.613281 L 116.351562 135.644531 L 124.519531 141.183594 C 125.199219 141.644531 125.96875 141.867188 126.734375 141.867188 C 128.003906 141.867188 129.25 141.253906 130.015625 140.121094 C 131.238281 138.304688 130.765625 135.839844 128.953125 134.613281 L 116.351562 126.070312 L 116.351562 119.40625 L 131.375 110.710938 L 137.128906 114.042969 L 138.210938 129.253906 C 138.359375 131.34375 140.097656 132.941406 142.15625 132.941406 C 142.25 132.941406 142.34375 132.9375 142.441406 132.929688 C 144.621094 132.773438 146.261719 130.875 146.105469 128.691406 L 145.40625 118.832031 L 157.472656 125.816406 L 158.554688 141.027344 C 158.703125 143.117188 160.4375 144.710938 162.496094 144.710938 C 162.589844 144.710938 162.6875 144.707031 162.78125 144.703125 C 164.960938 144.546875 166.601562 142.648438 166.445312 140.464844 L 165.746094 130.605469 L 174.585938 135.722656 C 175.207031 136.082031 175.890625 136.253906 176.5625 136.253906 C 177.925781 136.253906 179.257812 135.542969 179.992188 134.269531 C 181.082031 132.371094 180.433594 129.945312 178.542969 128.851562 L 169.703125 123.734375 L 178.570312 119.414062 C 180.535156 118.457031 181.355469 116.082031 180.398438 114.113281 " fill-opacity="1" fill-rule="nonzero"/></g><g fill="#ffffff" fill-opacity="1"><g transform="translate(167.886535, 20.549077)"><g><path d="M 0.9375 0 L 0.9375 -7.53125 L 1.734375 -7.53125 L 1.734375 -4.609375 L 1.828125 -4.59375 C 2.210938 -5.1875 2.769531 -5.484375 3.5 -5.484375 C 4.144531 -5.484375 4.613281 -5.316406 4.90625 -4.984375 C 5.195312 -4.648438 5.34375 -4.144531 5.34375 -3.46875 L 5.34375 0 L 4.546875 0 L 4.546875 -3.4375 C 4.546875 -3.757812 4.503906 -4.019531 4.421875 -4.21875 C 4.335938 -4.414062 4.207031 -4.554688 4.03125 -4.640625 C 3.851562 -4.734375 3.625 -4.78125 3.34375 -4.78125 C 2.863281 -4.78125 2.472656 -4.625 2.171875 -4.3125 C 1.878906 -4 1.734375 -3.484375 1.734375 -2.765625 L 1.734375 0 Z M 0.9375 0 "/></g></g></g><g fill="#ffffff" fill-opacity="1"><g transform="translate(174.081978, 20.549077)"><g><path d="M 5.125 -2.5 L 1.421875 -2.5 C 1.453125 -1.851562 1.609375 -1.375 1.890625 -1.0625 C 2.179688 -0.757812 2.582031 -0.609375 3.09375 -0.609375 C 3.476562 -0.609375 3.785156 -0.675781 4.015625 -0.8125 C 4.253906 -0.945312 4.441406 -1.160156 4.578125 -1.453125 L 4.671875 -1.453125 L 5.1875 -1.15625 C 5.03125 -0.757812 4.78125 -0.445312 4.4375 -0.21875 C 4.09375 0 3.644531 0.109375 3.09375 0.109375 C 2.570312 0.109375 2.125 0.00390625 1.75 -0.203125 C 1.375 -0.410156 1.085938 -0.722656 0.890625 -1.140625 C 0.691406 -1.554688 0.59375 -2.070312 0.59375 -2.6875 C 0.59375 -3.300781 0.695312 -3.816406 0.90625 -4.234375 C 1.125 -4.648438 1.414062 -4.960938 1.78125 -5.171875 C 2.144531 -5.378906 2.566406 -5.484375 3.046875 -5.484375 C 3.734375 -5.484375 4.269531 -5.285156 4.65625 -4.890625 C 5.039062 -4.503906 5.238281 -3.929688 5.25 -3.171875 C 5.25 -2.867188 5.238281 -2.664062 5.21875 -2.5625 Z M 4.453125 -3.171875 C 4.441406 -3.742188 4.316406 -4.160156 4.078125 -4.421875 C 3.835938 -4.679688 3.492188 -4.8125 3.046875 -4.8125 C 2.578125 -4.8125 2.207031 -4.675781 1.9375 -4.40625 C 1.664062 -4.144531 1.503906 -3.734375 1.453125 -3.171875 Z M 4.453125 -3.171875 "/></g></g></g><g fill="#ffffff" fill-opacity="1"><g transform="translate(179.818861, 20.549077)"><g><path d="M 1.078125 2.28125 C 0.890625 2.28125 0.71875 2.265625 0.5625 2.234375 C 0.40625 2.203125 0.269531 2.160156 0.15625 2.109375 L 0.3125 1.484375 L 0.390625 1.453125 C 0.472656 1.484375 0.570312 1.515625 0.6875 1.546875 C 0.800781 1.578125 0.921875 1.59375 1.046875 1.59375 C 1.265625 1.59375 1.441406 1.5625 1.578125 1.5 C 1.722656 1.4375 1.847656 1.335938 1.953125 1.203125 C 2.054688 1.078125 2.15625 0.894531 2.25 0.65625 L 2.4375 0.125 L 0.265625 -5.375 L 1.125 -5.375 L 2.828125 -0.984375 L 2.921875 -0.984375 L 4.546875 -5.375 L 5.375 -5.375 L 2.96875 0.84375 C 2.832031 1.1875 2.675781 1.460938 2.5 1.671875 C 2.332031 1.878906 2.132812 2.03125 1.90625 2.125 C 1.675781 2.226562 1.398438 2.28125 1.078125 2.28125 Z M 1.078125 2.28125 "/></g></g></g><g fill="#50ace4" fill-opacity="1"><g transform="translate(60.673819, 208.823597)"><g><path d="M 12.421875 -4.734375 C 12.304688 -3.203125 11.738281 -2 10.71875 -1.125 C 9.707031 -0.25 8.367188 0.1875 6.703125 0.1875 C 4.878906 0.1875 3.445312 -0.421875 2.40625 -1.640625 C 1.363281 -2.867188 0.84375 -4.550781 0.84375 -6.6875 L 0.84375 -7.5625 C 0.84375 -8.925781 1.082031 -10.128906 1.5625 -11.171875 C 2.039062 -12.210938 2.726562 -13.007812 3.625 -13.5625 C 4.519531 -14.125 5.5625 -14.40625 6.75 -14.40625 C 8.382812 -14.40625 9.703125 -13.960938 10.703125 -13.078125 C 11.703125 -12.203125 12.28125 -10.972656 12.4375 -9.390625 L 9.515625 -9.390625 C 9.441406 -10.304688 9.1875 -10.96875 8.75 -11.375 C 8.3125 -11.789062 7.644531 -12 6.75 -12 C 5.769531 -12 5.035156 -11.648438 4.546875 -10.953125 C 4.066406 -10.253906 3.820312 -9.171875 3.8125 -7.703125 L 3.8125 -6.625 C 3.8125 -5.09375 4.039062 -3.972656 4.5 -3.265625 C 4.96875 -2.554688 5.703125 -2.203125 6.703125 -2.203125 C 7.609375 -2.203125 8.28125 -2.40625 8.71875 -2.8125 C 9.164062 -3.226562 9.425781 -3.867188 9.5 -4.734375 Z M 12.421875 -4.734375 "/></g></g></g><g fill="#50ace4" fill-opacity="1"><g transform="translate(73.747667, 208.823597)"><g><path d="M 0.640625 -5.375 C 0.640625 -6.425781 0.84375 -7.359375 1.25 -8.171875 C 1.65625 -8.992188 2.234375 -9.628906 2.984375 -10.078125 C 3.742188 -10.523438 4.625 -10.75 5.625 -10.75 C 7.050781 -10.75 8.210938 -10.3125 9.109375 -9.4375 C 10.015625 -8.570312 10.519531 -7.390625 10.625 -5.890625 L 10.640625 -5.171875 C 10.640625 -3.546875 10.1875 -2.242188 9.28125 -1.265625 C 8.382812 -0.296875 7.171875 0.1875 5.640625 0.1875 C 4.117188 0.1875 2.90625 -0.296875 2 -1.265625 C 1.09375 -2.242188 0.640625 -3.570312 0.640625 -5.25 Z M 3.46875 -5.171875 C 3.46875 -4.171875 3.65625 -3.40625 4.03125 -2.875 C 4.40625 -2.34375 4.945312 -2.078125 5.65625 -2.078125 C 6.332031 -2.078125 6.863281 -2.335938 7.25 -2.859375 C 7.632812 -3.390625 7.828125 -4.226562 7.828125 -5.375 C 7.828125 -6.351562 7.632812 -7.113281 7.25 -7.65625 C 6.863281 -8.195312 6.320312 -8.46875 5.625 -8.46875 C 4.9375 -8.46875 4.40625 -8.195312 4.03125 -7.65625 C 3.65625 -7.125 3.46875 -6.296875 3.46875 -5.171875 Z M 3.46875 -5.171875 "/></g></g></g><g fill="#50ace4" fill-opacity="1"><g transform="translate(85.045814, 208.823597)"><g><path d="M 0.640625 -5.375 C 0.640625 -6.425781 0.84375 -7.359375 1.25 -8.171875 C 1.65625 -8.992188 2.234375 -9.628906 2.984375 -10.078125 C 3.742188 -10.523438 4.625 -10.75 5.625 -10.75 C 7.050781 -10.75 8.210938 -10.3125 9.109375 -9.4375 C 10.015625 -8.570312 10.519531 -7.390625 10.625 -5.890625 L 10.640625 -5.171875 C 10.640625 -3.546875 10.1875 -2.242188 9.28125 -1.265625 C 8.382812 -0.296875 7.171875 0.1875 5.640625 0.1875 C 4.117188 0.1875 2.90625 -0.296875 2 -1.265625 C 1.09375 -2.242188 0.640625 -3.570312 0.640625 -5.25 Z M 3.46875 -5.171875 C 3.46875 -4.171875 3.65625 -3.40625 4.03125 -2.875 C 4.40625 -2.34375 4.945312 -2.078125 5.65625 -2.078125 C 6.332031 -2.078125 6.863281 -2.335938 7.25 -2.859375 C 7.632812 -3.390625 7.828125 -4.226562 7.828125 -5.375 C 7.828125 -6.351562 7.632812 -7.113281 7.25 -7.65625 C 6.863281 -8.195312 6.320312 -8.46875 5.625 -8.46875 C 4.9375 -8.46875 4.40625 -8.195312 4.03125 -7.65625 C 3.65625 -7.125 3.46875 -6.296875 3.46875 -5.171875 Z M 3.46875 -5.171875 "/></g></g></g><g fill="#50ace4" fill-opacity="1"><g transform="translate(96.34396, 208.823597)"><g><path d="M 4.0625 0 L 1.234375 0 L 1.234375 -14.984375 L 4.0625 -14.984375 Z M 4.0625 0 "/></g></g></g><g fill="#50ace4" fill-opacity="1"><g transform="translate(101.641796, 208.823597)"><g/></g></g><g fill="#50ace4" fill-opacity="1"><g transform="translate(106.617663, 208.823597)"><g><path d="M 8.640625 -3.734375 C 8.640625 -4.285156 8.441406 -4.707031 8.046875 -5 C 7.660156 -5.289062 6.957031 -5.601562 5.9375 -5.9375 C 4.925781 -6.269531 4.125 -6.59375 3.53125 -6.90625 C 1.914062 -7.78125 1.109375 -8.957031 1.109375 -10.4375 C 1.109375 -11.195312 1.320312 -11.878906 1.75 -12.484375 C 2.1875 -13.085938 2.8125 -13.554688 3.625 -13.890625 C 4.4375 -14.234375 5.347656 -14.40625 6.359375 -14.40625 C 7.367188 -14.40625 8.269531 -14.21875 9.0625 -13.84375 C 9.851562 -13.476562 10.46875 -12.960938 10.90625 -12.296875 C 11.351562 -11.628906 11.578125 -10.867188 11.578125 -10.015625 L 8.640625 -10.015625 C 8.640625 -10.660156 8.4375 -11.164062 8.03125 -11.53125 C 7.625 -11.894531 7.046875 -12.078125 6.296875 -12.078125 C 5.585938 -12.078125 5.035156 -11.921875 4.640625 -11.609375 C 4.242188 -11.304688 4.046875 -10.910156 4.046875 -10.421875 C 4.046875 -9.960938 4.273438 -9.578125 4.734375 -9.265625 C 5.203125 -8.953125 5.890625 -8.65625 6.796875 -8.375 C 8.460938 -7.875 9.675781 -7.253906 10.4375 -6.515625 C 11.195312 -5.773438 11.578125 -4.851562 11.578125 -3.75 C 11.578125 -2.519531 11.109375 -1.554688 10.171875 -0.859375 C 9.242188 -0.160156 7.992188 0.1875 6.421875 0.1875 C 5.328125 0.1875 4.332031 -0.0078125 3.4375 -0.40625 C 2.539062 -0.800781 1.851562 -1.347656 1.375 -2.046875 C 0.90625 -2.742188 0.671875 -3.550781 0.671875 -4.46875 L 3.609375 -4.46875 C 3.609375 -2.90625 4.546875 -2.125 6.421875 -2.125 C 7.117188 -2.125 7.660156 -2.265625 8.046875 -2.546875 C 8.441406 -2.828125 8.640625 -3.222656 8.640625 -3.734375 Z M 8.640625 -3.734375 "/></g></g></g><g fill="#50ace4" fill-opacity="1"><g transform="translate(118.901227, 208.823597)"><g><path d="M 4.453125 -13.15625 L 4.453125 -10.5625 L 6.265625 -10.5625 L 6.265625 -8.484375 L 4.453125 -8.484375 L 4.453125 -3.21875 C 4.453125 -2.832031 4.523438 -2.550781 4.671875 -2.375 C 4.828125 -2.207031 5.117188 -2.125 5.546875 -2.125 C 5.859375 -2.125 6.132812 -2.148438 6.375 -2.203125 L 6.375 -0.0625 C 5.820312 0.101562 5.253906 0.1875 4.671875 0.1875 C 2.691406 0.1875 1.679688 -0.804688 1.640625 -2.796875 L 1.640625 -8.484375 L 0.09375 -8.484375 L 0.09375 -10.5625 L 1.640625 -10.5625 L 1.640625 -13.15625 Z M 4.453125 -13.15625 "/></g></g></g><g fill="#50ace4" fill-opacity="1"><g transform="translate(125.652796, 208.823597)"><g><path d="M 7.203125 0 C 7.066406 -0.25 6.972656 -0.566406 6.921875 -0.953125 C 6.234375 -0.191406 5.34375 0.1875 4.25 0.1875 C 3.21875 0.1875 2.359375 -0.109375 1.671875 -0.703125 C 0.992188 -1.296875 0.65625 -2.050781 0.65625 -2.96875 C 0.65625 -4.082031 1.070312 -4.9375 1.90625 -5.53125 C 2.738281 -6.132812 3.9375 -6.441406 5.5 -6.453125 L 6.796875 -6.453125 L 6.796875 -7.0625 C 6.796875 -7.539062 6.671875 -7.925781 6.421875 -8.21875 C 6.171875 -8.519531 5.773438 -8.671875 5.234375 -8.671875 C 4.765625 -8.671875 4.394531 -8.554688 4.125 -8.328125 C 3.851562 -8.097656 3.71875 -7.785156 3.71875 -7.390625 L 0.890625 -7.390625 C 0.890625 -7.992188 1.078125 -8.554688 1.453125 -9.078125 C 1.835938 -9.597656 2.375 -10.003906 3.0625 -10.296875 C 3.75 -10.597656 4.523438 -10.75 5.390625 -10.75 C 6.691406 -10.75 7.722656 -10.421875 8.484375 -9.765625 C 9.242188 -9.117188 9.625 -8.203125 9.625 -7.015625 L 9.625 -2.4375 C 9.632812 -1.4375 9.773438 -0.679688 10.046875 -0.171875 L 10.046875 0 Z M 4.875 -1.96875 C 5.289062 -1.96875 5.671875 -2.054688 6.015625 -2.234375 C 6.367188 -2.421875 6.628906 -2.671875 6.796875 -2.984375 L 6.796875 -4.796875 L 5.75 -4.796875 C 4.332031 -4.796875 3.582031 -4.3125 3.5 -3.34375 L 3.484375 -3.171875 C 3.484375 -2.816406 3.601562 -2.523438 3.84375 -2.296875 C 4.09375 -2.078125 4.4375 -1.96875 4.875 -1.96875 Z M 4.875 -1.96875 "/></g></g></g><g fill="#50ace4" fill-opacity="1"><g transform="translate(136.365547, 208.823597)"><g><path d="M 4.453125 -13.15625 L 4.453125 -10.5625 L 6.265625 -10.5625 L 6.265625 -8.484375 L 4.453125 -8.484375 L 4.453125 -3.21875 C 4.453125 -2.832031 4.523438 -2.550781 4.671875 -2.375 C 4.828125 -2.207031 5.117188 -2.125 5.546875 -2.125 C 5.859375 -2.125 6.132812 -2.148438 6.375 -2.203125 L 6.375 -0.0625 C 5.820312 0.101562 5.253906 0.1875 4.671875 0.1875 C 2.691406 0.1875 1.679688 -0.804688 1.640625 -2.796875 L 1.640625 -8.484375 L 0.09375 -8.484375 L 0.09375 -10.5625 L 1.640625 -10.5625 L 1.640625 -13.15625 Z M 4.453125 -13.15625 "/></g></g></g><g fill="#50ace4" fill-opacity="1"><g transform="translate(143.117116, 208.823597)"><g><path d="M 5.9375 0.1875 C 4.394531 0.1875 3.132812 -0.285156 2.15625 -1.234375 C 1.1875 -2.179688 0.703125 -3.445312 0.703125 -5.03125 L 0.703125 -5.296875 C 0.703125 -6.359375 0.90625 -7.304688 1.3125 -8.140625 C 1.726562 -8.972656 2.3125 -9.613281 3.0625 -10.0625 C 3.8125 -10.519531 4.664062 -10.75 5.625 -10.75 C 7.070312 -10.75 8.207031 -10.289062 9.03125 -9.375 C 9.863281 -8.46875 10.28125 -7.179688 10.28125 -5.515625 L 10.28125 -4.359375 L 3.5625 -4.359375 C 3.65625 -3.671875 3.929688 -3.117188 4.390625 -2.703125 C 4.847656 -2.285156 5.425781 -2.078125 6.125 -2.078125 C 7.207031 -2.078125 8.054688 -2.472656 8.671875 -3.265625 L 10.0625 -1.703125 C 9.632812 -1.109375 9.0625 -0.644531 8.34375 -0.3125 C 7.625 0.0195312 6.820312 0.1875 5.9375 0.1875 Z M 5.625 -8.46875 C 5.0625 -8.46875 4.601562 -8.28125 4.25 -7.90625 C 3.90625 -7.53125 3.6875 -6.988281 3.59375 -6.28125 L 7.515625 -6.28125 L 7.515625 -6.515625 C 7.503906 -7.140625 7.332031 -7.617188 7 -7.953125 C 6.675781 -8.296875 6.21875 -8.46875 5.625 -8.46875 Z M 5.625 -8.46875 "/></g></g></g><g fill="#50ace4" fill-opacity="1"><g transform="translate(153.917676, 208.823597)"><g><path d="M 6.796875 -2.921875 C 6.796875 -3.265625 6.625 -3.535156 6.28125 -3.734375 C 5.945312 -3.929688 5.398438 -4.109375 4.640625 -4.265625 C 2.128906 -4.785156 0.875 -5.851562 0.875 -7.46875 C 0.875 -8.40625 1.257812 -9.1875 2.03125 -9.8125 C 2.8125 -10.4375 3.832031 -10.75 5.09375 -10.75 C 6.4375 -10.75 7.507812 -10.429688 8.3125 -9.796875 C 9.113281 -9.171875 9.515625 -8.351562 9.515625 -7.34375 L 6.6875 -7.34375 C 6.6875 -7.75 6.554688 -8.082031 6.296875 -8.34375 C 6.035156 -8.613281 5.628906 -8.75 5.078125 -8.75 C 4.609375 -8.75 4.242188 -8.640625 3.984375 -8.421875 C 3.722656 -8.203125 3.59375 -7.925781 3.59375 -7.59375 C 3.59375 -7.289062 3.738281 -7.039062 4.03125 -6.84375 C 4.332031 -6.65625 4.832031 -6.488281 5.53125 -6.34375 C 6.238281 -6.207031 6.832031 -6.050781 7.3125 -5.875 C 8.800781 -5.320312 9.546875 -4.375 9.546875 -3.03125 C 9.546875 -2.070312 9.128906 -1.296875 8.296875 -0.703125 C 7.472656 -0.109375 6.410156 0.1875 5.109375 0.1875 C 4.222656 0.1875 3.4375 0.03125 2.75 -0.28125 C 2.0625 -0.59375 1.519531 -1.023438 1.125 -1.578125 C 0.738281 -2.128906 0.546875 -2.722656 0.546875 -3.359375 L 3.21875 -3.359375 C 3.25 -2.859375 3.4375 -2.472656 3.78125 -2.203125 C 4.125 -1.941406 4.582031 -1.8125 5.15625 -1.8125 C 5.695312 -1.8125 6.101562 -1.910156 6.375 -2.109375 C 6.65625 -2.316406 6.796875 -2.585938 6.796875 -2.921875 Z M 6.796875 -2.921875 "/></g></g></g></svg>