<svg xmlns="http://www.w3.org/2000/svg" xmlns:xlink="http://www.w3.org/1999/xlink" width="300" zoomAndPan="magnify" viewBox="0 0 224.87999 225" height="300" preserveAspectRatio="xMidYMid meet" version="1.0"><defs><g/><clipPath id="e5383e34c1"><path d="M 37.359375 134 L 187.28125 134 L 187.28125 168.828125 L 37.359375 168.828125 Z M 37.359375 134 " clip-rule="nonzero"/></clipPath><clipPath id="13906e0b58"><path d="M 48 29.402344 L 186 29.402344 L 186 147 L 48 147 Z M 48 29.402344 " clip-rule="nonzero"/></clipPath></defs><g clip-path="url(#e5383e34c1)"><path fill="#efa95a" d="M 37.40625 134.507812 L 187.273438 134.507812 C 187.273438 134.507812 186.523438 145.738281 182.480469 150.128906 C 178.4375 154.515625 172.75 157.816406 170.574219 159.558594 C 168.402344 161.300781 160.445312 162.878906 155.714844 164.753906 C 150.984375 166.628906 107.914062 168.628906 101.566406 168.753906 C 95.214844 168.878906 61.660156 163.753906 56.75 163.753906 C 51.839844 163.753906 48.714844 160.855469 47.46875 156.566406 C 46.21875 152.277344 42.933594 149.503906 42.558594 147.628906 C 42.1875 145.753906 37.40625 140.136719 37.40625 134.507812 Z M 37.40625 134.507812 " fill-opacity="1" fill-rule="nonzero"/></g><path fill="#603a12" d="M 87.824219 134.507812 L 72.597656 138.277344 L 57.75 136.65625 L 42.324219 136.535156 L 58.035156 137.28125 L 70.808594 138.722656 L 61.148438 138.867188 L 38.871094 140.464844 C 38.894531 140.519531 38.914062 140.582031 38.9375 140.636719 C 39.09375 140.984375 39.265625 141.304688 39.429688 141.636719 L 60.765625 139.601562 L 64.09375 146.210938 L 44.9375 151.566406 C 45.113281 151.824219 45.289062 152.074219 45.464844 152.347656 C 45.492188 152.390625 45.515625 152.4375 45.542969 152.476562 L 65.605469 146.597656 L 80.585938 151.835938 L 57.527344 156.125 L 47.46875 156.566406 C 47.621094 157.101562 47.808594 157.617188 48.023438 158.105469 C 48.238281 158.597656 48.480469 159.0625 48.753906 159.5 C 48.785156 159.550781 48.832031 159.59375 48.863281 159.648438 L 51.222656 158.445312 L 59.539062 157.738281 L 85.484375 152.902344 L 86.957031 157.46875 L 108.925781 159.007812 C 105.273438 159.707031 100.371094 160.699219 95.914062 161.722656 C 93.03125 162.386719 83.414062 163.957031 73.09375 165.59375 C 75 165.839844 76.640625 166.042969 78.617188 166.300781 C 78.726562 166.3125 78.816406 166.324219 78.925781 166.335938 L 112.640625 159.792969 L 128.09375 167.472656 C 128.5 167.445312 128.839844 167.433594 129.246094 167.410156 C 131.019531 167.300781 132.722656 167.175781 134.460938 167.058594 L 131.457031 165.566406 L 144.015625 163.011719 L 151.886719 160.320312 L 143.925781 162.101562 L 126.457031 163.085938 L 118.460938 159.117188 C 118.460938 159.117188 116.214844 157.976562 114.472656 158.042969 C 112.351562 157.933594 94.292969 156.957031 90.792969 155.234375 C 87.074219 153.410156 87.320312 146.988281 87.320312 146.988281 L 103.554688 147.570312 L 113.4375 149.367188 L 124.867188 147.761719 L 113.292969 147.972656 L 104.730469 143.648438 L 105.953125 140.125 L 114.859375 138.679688 L 119.355469 135.070312 C 122.835938 136.765625 127.945312 139.207031 129.585938 139.75 L 133.902344 148.148438 L 127.378906 150.710938 C 127.378906 150.710938 125.265625 154.804688 125.007812 154.804688 C 124.75 154.804688 119.25 156.199219 119.25 156.199219 L 126.589844 155.257812 L 128.425781 151.398438 L 137.34375 148.5 L 131.898438 139.992188 C 136.46875 140.367188 148.035156 141.457031 148.035156 141.457031 L 160.328125 145.800781 L 177.253906 142.277344 L 185.171875 145.101562 C 185.363281 144.558594 185.550781 144.011719 185.710938 143.453125 L 176.933594 140.199219 L 160.707031 144.570312 L 150.289062 139.632812 C 150.289062 139.632812 131.753906 138.789062 131.003906 138.285156 C 130.40625 137.882812 123.226562 135.5 120.214844 134.507812 L 118.203125 134.507812 C 118.539062 134.671875 118.496094 134.652344 118.890625 134.84375 L 113.199219 138.078125 L 105.117188 138.539062 L 100.910156 141.660156 L 82.683594 145.277344 L 83.546875 146.90625 L 84.878906 151.039062 L 82.832031 151.421875 L 65.367188 145.417969 L 61.621094 139.523438 L 72.089844 139.8125 L 90.898438 134.507812 Z M 101.390625 143.535156 L 104.746094 145.015625 L 110.714844 148.007812 L 102.765625 146.113281 L 88.625 145.523438 Z M 154.582031 148.828125 L 144 149.777344 L 139.925781 150.664062 L 153.890625 149.8125 L 163.277344 150.476562 L 168.707031 149.316406 L 163 149.945312 Z M 176.835938 155.082031 L 173.667969 156.203125 L 139.378906 155.191406 L 165.054688 157.089844 L 168.03125 160.828125 C 168.582031 160.621094 169.082031 160.414062 169.507812 160.203125 C 169.941406 159.992188 170.304688 159.773438 170.574219 159.558594 L 168.859375 157.371094 L 173.175781 157.691406 C 173.992188 157.128906 174.871094 156.527344 175.828125 155.835938 C 176.15625 155.597656 176.496094 155.335938 176.835938 155.082031 Z M 176.835938 155.082031 " fill-opacity="1" fill-rule="nonzero"/><g clip-path="url(#13906e0b58)"><path fill="#603a12" d="M 165.347656 29.402344 C 165.347656 29.402344 164.851562 30.523438 164.246094 31.917969 C 163.945312 32.617188 163.613281 33.386719 163.300781 34.113281 C 162.992188 34.84375 162.699219 35.535156 162.476562 36.085938 C 162.476562 36.089844 162.472656 36.09375 162.46875 36.097656 C 162.359375 36.371094 162.082031 36.820312 161.679688 37.398438 C 161.675781 37.402344 161.675781 37.40625 161.671875 37.410156 L 161.671875 37.414062 C 161.664062 37.421875 161.652344 37.4375 161.644531 37.449219 C 161.25 38.011719 160.742188 38.703125 160.160156 39.464844 C 160.136719 39.496094 160.117188 39.519531 160.09375 39.550781 C 160.0625 39.589844 160.023438 39.640625 159.992188 39.683594 C 156.226562 44.585938 149.585938 52.441406 149.433594 52.914062 C 149.316406 53.273438 149.332031 54.472656 149.367188 55.628906 C 149.394531 56.496094 149.429688 57.386719 149.429688 57.625 C 149.429688 57.628906 149.429688 57.636719 149.429688 57.636719 C 149.425781 57.78125 149.175781 58.390625 148.792969 59.277344 C 148.410156 60.171875 147.890625 61.339844 147.359375 62.582031 C 147.246094 62.847656 147.132812 63.125 147.015625 63.398438 C 147.019531 63.40625 147.019531 63.414062 147.019531 63.421875 C 146.078125 65.664062 145.15625 68 144.960938 69.28125 C 144.523438 72.164062 138.75 83.585938 138.75 83.585938 C 138.75 83.585938 134.914062 91.714844 133.640625 94.378906 C 133.546875 94.574219 133.261719 95.183594 133.203125 95.300781 C 133.199219 95.308594 133.191406 95.316406 133.1875 95.324219 C 133.085938 95.53125 132.894531 95.835938 132.628906 96.21875 C 132.625 96.222656 132.621094 96.226562 132.617188 96.234375 C 132.335938 96.632812 131.984375 97.109375 131.582031 97.636719 C 131.535156 97.699219 131.476562 97.773438 131.425781 97.835938 C 130.683594 98.808594 129.804688 99.917969 128.925781 101.003906 C 128.890625 101.046875 128.855469 101.09375 128.820312 101.140625 C 128.699219 101.285156 128.617188 101.386719 128.5 101.53125 C 126.792969 103.628906 125.191406 105.546875 125.125 105.625 C 125.121094 105.628906 125.050781 105.714844 125.050781 105.714844 L 125.050781 105.699219 C 125.050781 105.6875 125.136719 104.304688 125.234375 102.523438 C 125.335938 100.730469 125.457031 98.554688 125.523438 97.011719 C 125.539062 96.625 125.546875 96.085938 125.546875 95.433594 C 125.546875 94.863281 125.542969 94.179688 125.535156 93.46875 C 125.484375 88.457031 125.285156 80.566406 125.609375 79.171875 C 126.023438 77.355469 128.058594 71.96875 129.292969 68.511719 C 130.527344 65.054688 132.46875 60.292969 134.398438 58.621094 C 134.40625 58.617188 134.410156 58.609375 134.414062 58.605469 C 134.53125 58.503906 134.644531 58.386719 134.761719 58.25 C 134.878906 58.117188 134.996094 57.964844 135.113281 57.800781 C 135.125 57.78125 135.140625 57.761719 135.15625 57.742188 C 135.269531 57.582031 135.378906 57.410156 135.492188 57.226562 C 135.601562 57.050781 135.710938 56.859375 135.816406 56.664062 C 135.84375 56.613281 135.871094 56.566406 135.898438 56.511719 C 136 56.324219 136.101562 56.132812 136.203125 55.9375 C 136.292969 55.75 136.382812 55.558594 136.472656 55.367188 C 136.742188 54.796875 136.988281 54.234375 137.21875 53.667969 C 137.390625 53.246094 137.554688 52.832031 137.699219 52.449219 C 137.847656 52.058594 137.972656 51.710938 138.082031 51.402344 C 138.332031 50.707031 138.484375 50.238281 138.484375 50.238281 C 138.484375 50.238281 138.476562 50.242188 138.472656 50.246094 C 138.46875 50.25 138.410156 50.273438 138.355469 50.296875 C 138.335938 50.308594 138.320312 50.316406 138.292969 50.324219 C 138.289062 50.328125 138.28125 50.328125 138.273438 50.328125 C 138.015625 50.410156 137.507812 50.476562 136.726562 50.144531 C 136.328125 49.972656 135.863281 49.703125 135.324219 49.277344 C 133.167969 47.582031 133.34375 39.617188 133.34375 39.617188 C 133.34375 39.617188 132.167969 41.769531 132.617188 44.628906 C 132.84375 46.054688 132.9375 48.042969 132.933594 49.878906 C 132.929688 50.777344 132.902344 51.632812 132.855469 52.382812 C 132.855469 52.398438 132.855469 52.421875 132.851562 52.441406 C 132.851562 52.453125 132.851562 52.460938 132.847656 52.46875 C 132.800781 53.210938 132.730469 53.839844 132.644531 54.257812 C 132.292969 55.953125 126.675781 63.792969 125.464844 65.386719 C 124.5625 66.578125 123.980469 68.976562 123.554688 72.183594 C 123.554688 72.203125 123.550781 72.214844 123.546875 72.230469 C 123.546875 72.238281 123.542969 72.242188 123.542969 72.25 C 123.542969 72.257812 123.542969 72.265625 123.539062 72.273438 C 123.46875 72.808594 123.40625 73.363281 123.34375 73.9375 C 123.285156 74.460938 123.234375 75 123.183594 75.554688 C 123.175781 75.625 123.167969 75.679688 123.160156 75.75 C 123.046875 77 122.730469 77.988281 122.289062 78.746094 C 120.972656 81.023438 118.5625 81.253906 117.300781 80.324219 C 117.195312 80.246094 117.039062 80.148438 116.839844 80.027344 C 116.640625 79.90625 116.402344 79.765625 116.125 79.609375 L 116.121094 79.609375 C 114.457031 78.667969 111.472656 77.113281 108.574219 75.535156 L 108.570312 75.535156 C 105.671875 73.953125 102.859375 72.351562 101.53125 71.316406 C 101.085938 70.972656 100.808594 70.6875 100.75 70.492188 C 100.273438 68.917969 100.957031 62.839844 100.667969 62.15625 C 100.382812 61.472656 96.078125 44.535156 96.078125 44.535156 L 99.542969 34.277344 C 99.542969 34.277344 97.507812 37.984375 97.167969 38.652344 C 96.824219 39.316406 93.933594 43.214844 93.652344 44.347656 C 93.371094 45.484375 94.273438 47.097656 94.96875 50.074219 C 95.660156 53.050781 97.289062 64.027344 97.296875 66.367188 C 97.300781 68.710938 98.460938 73.492188 98.460938 73.492188 C 98.460938 73.492188 103.402344 77.59375 104.058594 77.96875 C 104.710938 78.347656 117.164062 85.1875 117.164062 85.1875 C 117.164062 85.1875 120.476562 96.664062 120.433594 97.699219 C 120.421875 97.953125 120.253906 98.570312 120.007812 99.339844 C 120.003906 99.347656 120.003906 99.355469 120 99.367188 C 119.988281 99.398438 119.976562 99.441406 119.964844 99.472656 C 119.707031 100.277344 119.390625 101.191406 119.0625 102.121094 C 118.746094 103.027344 118.425781 103.914062 118.1875 104.585938 C 118.066406 104.933594 117.960938 105.230469 117.890625 105.445312 C 117.820312 105.652344 117.785156 105.78125 117.78125 105.824219 C 117.78125 105.824219 117.777344 105.832031 117.777344 105.832031 C 117.777344 105.902344 117.441406 106.367188 116.9375 107.023438 C 116.433594 107.679688 115.757812 108.523438 115.085938 109.363281 C 115.082031 109.363281 115.082031 109.363281 115.082031 109.363281 C 114.613281 109.949219 114.558594 110.011719 114.144531 110.519531 C 113.375 111.464844 112.390625 112.675781 112.390625 112.675781 L 109.691406 110.957031 C 109.691406 110.957031 106.035156 105.121094 105.535156 104.464844 C 105.035156 103.8125 99.160156 94.769531 99.160156 94.769531 C 99.160156 94.769531 95.878906 90.339844 95.128906 88.710938 C 94.382812 87.082031 93.207031 84.824219 93.207031 84.824219 C 93.207031 84.824219 90.597656 84.023438 90.105469 84.023438 C 89.613281 84.023438 87.347656 82.378906 86.566406 81.203125 C 85.78125 80.023438 82.308594 74.976562 82.261719 74.636719 C 82.210938 74.300781 82.320312 70.972656 82.320312 70.972656 C 82.320312 70.972656 81.625 60.652344 81.773438 58.039062 C 81.925781 55.421875 81.25 45.347656 81.25 45.347656 C 81.25 45.347656 80.421875 48.039062 80.1875 49.820312 C 79.953125 51.605469 79.933594 70.519531 79.933594 70.519531 C 79.933594 70.519531 79.0625 69.617188 78.90625 69.492188 C 78.746094 69.371094 76.546875 68.25 76.410156 67.914062 C 76.273438 67.582031 76.414062 66.070312 76.5 65.753906 C 76.582031 65.433594 71.140625 57.480469 71.140625 57.480469 L 69.679688 57.6875 C 69.679688 57.6875 74.136719 64.28125 74.371094 64.789062 C 74.601562 65.296875 73.40625 67.726562 73.8125 68.148438 C 74.214844 68.570312 77.289062 70.875 78.207031 72.21875 C 79.121094 73.566406 84.609375 85.296875 84.390625 85.464844 C 84.175781 85.632812 71.351562 85.722656 70.5625 85.722656 C 69.777344 85.722656 62.230469 81.78125 60.738281 80.636719 C 59.246094 79.496094 53.949219 74.878906 53.601562 74.878906 C 53.257812 74.878906 49.089844 73.863281 49.089844 73.863281 L 48.175781 74.902344 C 48.175781 74.902344 51.355469 75.996094 52.378906 76.046875 C 53.398438 76.101562 54.59375 78.96875 55.660156 79.503906 C 56.726562 80.039062 62.878906 85.585938 63.4375 85.554688 C 63.996094 85.519531 67.933594 86.925781 70.164062 87.121094 C 72.394531 87.316406 80.078125 87.550781 82.761719 87.550781 C 85.445312 87.550781 90.914062 90.046875 92.03125 90.882812 C 93.148438 91.71875 95.792969 93.597656 97.675781 98.800781 C 99.558594 104.003906 105.277344 115.171875 105.710938 117.925781 C 106.144531 120.683594 105.3125 120.722656 103.769531 123.617188 C 102.226562 126.515625 101.734375 130.1875 101.445312 134.507812 C 101.15625 138.824219 100.265625 144.078125 100.265625 144.078125 C 100.265625 144.078125 105.160156 146.382812 110.519531 146.578125 C 112.972656 146.667969 115.910156 146.171875 118.398438 145.613281 C 118.703125 145.546875 118.988281 145.484375 119.273438 145.414062 C 119.855469 145.277344 120.414062 145.132812 120.910156 145 C 121.40625 144.867188 121.832031 144.746094 122.214844 144.636719 C 123.089844 144.378906 123.65625 144.199219 123.65625 144.199219 L 123.65625 144.195312 C 123.65625 144.195312 123.617188 144.121094 123.609375 144.113281 C 123.578125 144.058594 123.25 143.492188 122.820312 142.683594 C 122.777344 142.605469 122.757812 142.570312 122.714844 142.492188 C 122.695312 142.453125 122.671875 142.402344 122.648438 142.363281 C 122.398438 141.878906 122.117188 141.320312 121.820312 140.691406 C 121.808594 140.664062 121.796875 140.640625 121.78125 140.613281 C 121.773438 140.597656 121.765625 140.578125 121.757812 140.5625 C 121.433594 139.863281 121.089844 139.09375 120.761719 138.273438 C 120.761719 138.273438 120.761719 138.273438 120.761719 138.269531 C 120.089844 136.601562 119.472656 134.738281 119.125 132.90625 C 119.121094 132.898438 119.121094 132.894531 119.121094 132.890625 C 119.035156 132.4375 118.964844 131.984375 118.914062 131.539062 C 118.914062 131.539062 118.914062 131.539062 118.914062 131.535156 C 118.765625 130.1875 118.800781 128.886719 119.109375 127.730469 C 119.253906 127.195312 119.449219 126.632812 119.667969 126.058594 C 119.667969 126.0625 119.667969 126.0625 119.667969 126.0625 C 119.765625 125.808594 119.855469 125.558594 119.96875 125.296875 L 119.96875 125.292969 C 120.328125 124.449219 120.761719 123.5625 121.261719 122.640625 C 121.265625 122.632812 121.269531 122.625 121.273438 122.617188 C 121.28125 122.605469 121.289062 122.589844 121.296875 122.578125 C 123.308594 118.871094 126.375 114.597656 129.992188 109.988281 C 131.8125 107.675781 133.769531 105.277344 135.804688 102.824219 C 143.941406 93.019531 156.0625 88.0625 157.628906 88.113281 C 157.761719 88.117188 157.925781 88.1875 158.097656 88.277344 C 158.175781 88.320312 158.25 88.351562 158.335938 88.410156 C 158.339844 88.410156 158.34375 88.414062 158.347656 88.417969 C 159.15625 88.957031 160.257812 90.148438 161.339844 91.339844 C 161.351562 91.351562 161.359375 91.359375 161.367188 91.371094 C 161.734375 91.773438 162.097656 92.171875 162.445312 92.546875 C 162.621094 92.734375 162.792969 92.914062 162.960938 93.085938 C 163.128906 93.257812 163.289062 93.417969 163.445312 93.570312 C 163.453125 93.574219 163.460938 93.578125 163.464844 93.585938 C 163.613281 93.726562 163.757812 93.859375 163.894531 93.972656 C 164.035156 94.09375 164.167969 94.199219 164.292969 94.28125 C 164.417969 94.367188 164.535156 94.4375 164.640625 94.480469 C 164.644531 94.480469 164.644531 94.480469 164.648438 94.480469 C 164.695312 94.503906 164.742188 94.519531 164.789062 94.527344 C 164.835938 94.539062 164.878906 94.542969 164.921875 94.542969 C 164.960938 94.542969 165.011719 94.527344 165.074219 94.5 C 165.136719 94.472656 165.203125 94.433594 165.285156 94.382812 C 165.441406 94.285156 165.636719 94.136719 165.859375 93.953125 C 165.859375 93.953125 165.863281 93.953125 165.863281 93.953125 C 165.867188 93.949219 165.875 93.941406 165.878906 93.9375 C 166.097656 93.757812 166.347656 93.539062 166.621094 93.289062 C 166.898438 93.035156 167.203125 92.746094 167.527344 92.433594 C 167.851562 92.117188 168.195312 91.777344 168.550781 91.417969 C 168.90625 91.058594 169.277344 90.679688 169.65625 90.285156 C 170.417969 89.5 171.214844 88.664062 172 87.820312 C 172.789062 86.976562 173.566406 86.132812 174.296875 85.332031 C 174.988281 84.574219 175.625 83.871094 176.191406 83.242188 C 176.273438 83.148438 176.304688 83.113281 176.386719 83.023438 C 176.917969 82.429688 177.386719 81.902344 177.71875 81.527344 C 178.074219 81.125 178.289062 80.871094 178.328125 80.816406 L 178.332031 80.816406 C 178.371094 80.765625 178.5 80.691406 178.6875 80.605469 C 178.695312 80.605469 178.699219 80.601562 178.703125 80.597656 C 178.90625 80.507812 179.175781 80.40625 179.492188 80.292969 C 179.523438 80.28125 179.566406 80.269531 179.597656 80.257812 C 180.179688 80.050781 180.898438 79.820312 181.621094 79.597656 C 181.660156 79.582031 181.699219 79.574219 181.742188 79.558594 C 181.882812 79.515625 181.988281 79.488281 182.128906 79.445312 C 183.511719 79.027344 184.917969 78.625 184.917969 78.625 L 185.710938 77.042969 C 185.710938 77.042969 185.578125 77.066406 185.570312 77.066406 C 185.484375 77.082031 185.308594 77.109375 184.894531 77.179688 C 184.472656 77.253906 183.882812 77.359375 183.28125 77.472656 C 183.101562 77.507812 183.082031 77.511719 182.894531 77.546875 C 182.5625 77.613281 182.222656 77.679688 181.886719 77.753906 C 181.558594 77.824219 181.234375 77.902344 180.925781 77.976562 C 180.875 77.988281 180.832031 78 180.78125 78.011719 C 180.453125 78.09375 180.144531 78.175781 179.875 78.261719 C 179.734375 78.304688 179.605469 78.347656 179.484375 78.390625 C 179.375 78.433594 179.273438 78.472656 179.183594 78.515625 C 179.179688 78.515625 179.175781 78.515625 179.171875 78.519531 C 179.164062 78.519531 179.15625 78.527344 179.152344 78.53125 C 178.96875 78.613281 178.765625 78.722656 178.535156 78.859375 C 178.308594 78.988281 178.0625 79.140625 177.800781 79.308594 C 177.761719 79.335938 177.722656 79.363281 177.679688 79.390625 C 177.433594 79.550781 177.171875 79.722656 176.90625 79.90625 C 176.605469 80.105469 176.300781 80.320312 175.992188 80.535156 C 175.984375 80.539062 175.980469 80.542969 175.972656 80.546875 C 174.753906 81.40625 173.511719 82.3125 172.703125 82.859375 C 172.703125 82.859375 172.699219 82.859375 172.699219 82.859375 C 172.496094 82.996094 172.210938 83.210938 171.867188 83.484375 C 171.523438 83.757812 171.121094 84.089844 170.683594 84.457031 C 170.078125 84.960938 169.378906 85.558594 168.695312 86.140625 C 168.390625 86.402344 168.109375 86.640625 167.800781 86.898438 C 167.800781 86.902344 167.800781 86.902344 167.800781 86.902344 C 166.816406 87.742188 165.867188 88.546875 165.136719 89.140625 C 165.136719 89.140625 165.132812 89.140625 165.132812 89.140625 C 165.042969 89.214844 164.988281 89.253906 164.902344 89.320312 C 164.652344 89.523438 164.394531 89.726562 164.21875 89.855469 C 164.214844 89.855469 164.210938 89.855469 164.210938 89.859375 C 163.984375 90.023438 163.824219 90.121094 163.765625 90.121094 C 163.28125 90.121094 159.730469 84.140625 159.730469 84.140625 C 159.730469 84.140625 159.652344 84.167969 159.648438 84.167969 C 159.601562 84.183594 159.449219 84.230469 159.078125 84.359375 C 158.867188 84.433594 158.605469 84.527344 158.300781 84.640625 C 158.019531 84.746094 157.691406 84.875 157.335938 85.015625 C 157.265625 85.042969 157.242188 85.054688 157.171875 85.082031 C 156.804688 85.230469 156.414062 85.394531 155.984375 85.578125 C 155.523438 85.777344 155.027344 85.996094 154.503906 86.238281 C 154.5 86.242188 154.496094 86.242188 154.496094 86.242188 C 154.496094 86.242188 154.492188 86.242188 154.492188 86.246094 C 153.964844 86.488281 153.402344 86.757812 152.816406 87.050781 C 152.246094 87.335938 151.652344 87.644531 151.035156 87.976562 C 151.015625 87.984375 151 87.992188 150.984375 88.003906 C 149.710938 88.6875 148.5625 89.332031 147.554688 89.882812 C 147.554688 89.882812 147.554688 89.882812 147.550781 89.882812 L 147.535156 89.894531 C 145.546875 90.976562 144.113281 91.675781 143.363281 91.554688 C 143.355469 91.554688 143.347656 91.558594 143.339844 91.554688 C 143.332031 91.554688 143.324219 91.550781 143.320312 91.550781 C 143.234375 91.53125 143.160156 91.507812 143.09375 91.464844 C 142.882812 91.332031 142.773438 91.070312 142.773438 90.660156 C 142.773438 88.460938 149.257812 68.007812 149.257812 68.007812 C 149.257812 68.007812 154.980469 65.746094 156.824219 65.332031 C 158.207031 65.023438 162.019531 66.582031 163.84375 67.378906 C 164.449219 67.644531 164.835938 67.824219 164.835938 67.824219 L 164.835938 67.828125 L 169.460938 63.730469 L 178.382812 62.460938 L 178.375 62.460938 L 178.382812 62.460938 C 178.382812 62.460938 177.941406 62.375 177.273438 62.253906 C 176.605469 62.128906 175.707031 61.964844 174.792969 61.808594 C 173.875 61.648438 172.941406 61.496094 172.199219 61.390625 C 171.828125 61.335938 171.503906 61.296875 171.253906 61.273438 C 171.128906 61.257812 171.023438 61.25 170.9375 61.25 C 170.851562 61.246094 170.789062 61.25 170.753906 61.257812 C 170.675781 61.273438 170.570312 61.316406 170.4375 61.375 C 170.300781 61.433594 170.140625 61.515625 169.953125 61.605469 C 169.582031 61.792969 169.113281 62.035156 168.570312 62.296875 C 168.53125 62.316406 168.488281 62.332031 168.449219 62.351562 C 167.941406 62.59375 167.386719 62.84375 166.785156 63.078125 C 166.777344 63.078125 166.769531 63.082031 166.765625 63.085938 C 166.761719 63.085938 166.757812 63.085938 166.757812 63.089844 C 166.113281 63.335938 165.425781 63.5625 164.71875 63.726562 C 164.710938 63.726562 164.699219 63.730469 164.691406 63.734375 C 164.6875 63.734375 164.679688 63.734375 164.671875 63.734375 C 164.328125 63.8125 163.894531 63.847656 163.398438 63.847656 C 163.382812 63.847656 163.371094 63.847656 163.359375 63.847656 C 163.335938 63.847656 163.308594 63.847656 163.285156 63.847656 C 162.792969 63.84375 162.246094 63.808594 161.660156 63.75 C 161.648438 63.75 161.632812 63.75 161.621094 63.746094 C 161.601562 63.746094 161.578125 63.742188 161.558594 63.742188 C 160.992188 63.683594 160.394531 63.601562 159.792969 63.507812 C 159.746094 63.5 159.703125 63.496094 159.660156 63.488281 C 158.992188 63.382812 158.3125 63.261719 157.65625 63.136719 C 157.625 63.132812 157.597656 63.125 157.566406 63.117188 C 156.324219 62.875 155.167969 62.621094 154.304688 62.417969 C 154.285156 62.414062 154.253906 62.40625 154.230469 62.402344 C 153.339844 62.191406 152.773438 62.046875 152.773438 62.046875 C 152.773438 62.042969 152.339844 57.417969 152.777344 55.234375 C 152.886719 54.6875 153.492188 53.628906 154.355469 52.316406 C 154.355469 52.3125 154.359375 52.308594 154.363281 52.308594 C 155.222656 50.996094 156.335938 49.433594 157.460938 47.878906 C 158.589844 46.320312 159.738281 44.765625 160.652344 43.480469 C 161.113281 42.835938 161.511719 42.257812 161.828125 41.78125 C 161.828125 41.78125 161.828125 41.78125 161.828125 41.777344 C 161.988281 41.539062 162.121094 41.324219 162.234375 41.140625 C 162.34375 40.957031 162.425781 40.796875 162.480469 40.675781 C 162.480469 40.675781 162.484375 40.671875 162.484375 40.671875 C 162.539062 40.546875 162.597656 40.398438 162.660156 40.21875 C 162.714844 40.058594 162.777344 39.875 162.839844 39.675781 C 162.996094 39.179688 163.167969 38.578125 163.34375 37.914062 C 163.484375 37.378906 163.628906 36.820312 163.773438 36.234375 C 163.933594 35.59375 164.089844 34.9375 164.242188 34.292969 C 164.542969 33.007812 164.820312 31.785156 165.015625 30.882812 C 165.195312 30.070312 165.285156 29.648438 165.304688 29.546875 C 165.308594 29.542969 165.339844 29.402344 165.339844 29.402344 L 165.335938 29.40625 Z M 165.347656 29.402344 " fill-opacity="1" fill-rule="nonzero"/></g><g fill="#ffffff" fill-opacity="1"><g transform="translate(167.886535, 20.549077)"><g><path d="M 0.9375 0 L 0.9375 -7.53125 L 1.734375 -7.53125 L 1.734375 -4.609375 L 1.828125 -4.59375 C 2.210938 -5.1875 2.769531 -5.484375 3.5 -5.484375 C 4.144531 -5.484375 4.613281 -5.316406 4.90625 -4.984375 C 5.195312 -4.648438 5.34375 -4.144531 5.34375 -3.46875 L 5.34375 0 L 4.546875 0 L 4.546875 -3.4375 C 4.546875 -3.757812 4.503906 -4.019531 4.421875 -4.21875 C 4.335938 -4.414062 4.207031 -4.554688 4.03125 -4.640625 C 3.851562 -4.734375 3.625 -4.78125 3.34375 -4.78125 C 2.863281 -4.78125 2.472656 -4.625 2.171875 -4.3125 C 1.878906 -4 1.734375 -3.484375 1.734375 -2.765625 L 1.734375 0 Z M 0.9375 0 "/></g></g></g><g fill="#ffffff" fill-opacity="1"><g transform="translate(174.081978, 20.549077)"><g><path d="M 5.125 -2.5 L 1.421875 -2.5 C 1.453125 -1.851562 1.609375 -1.375 1.890625 -1.0625 C 2.179688 -0.757812 2.582031 -0.609375 3.09375 -0.609375 C 3.476562 -0.609375 3.785156 -0.675781 4.015625 -0.8125 C 4.253906 -0.945312 4.441406 -1.160156 4.578125 -1.453125 L 4.671875 -1.453125 L 5.1875 -1.15625 C 5.03125 -0.757812 4.78125 -0.445312 4.4375 -0.21875 C 4.09375 0 3.644531 0.109375 3.09375 0.109375 C 2.570312 0.109375 2.125 0.00390625 1.75 -0.203125 C 1.375 -0.410156 1.085938 -0.722656 0.890625 -1.140625 C 0.691406 -1.554688 0.59375 -2.070312 0.59375 -2.6875 C 0.59375 -3.300781 0.695312 -3.816406 0.90625 -4.234375 C 1.125 -4.648438 1.414062 -4.960938 1.78125 -5.171875 C 2.144531 -5.378906 2.566406 -5.484375 3.046875 -5.484375 C 3.734375 -5.484375 4.269531 -5.285156 4.65625 -4.890625 C 5.039062 -4.503906 5.238281 -3.929688 5.25 -3.171875 C 5.25 -2.867188 5.238281 -2.664062 5.21875 -2.5625 Z M 4.453125 -3.171875 C 4.441406 -3.742188 4.316406 -4.160156 4.078125 -4.421875 C 3.835938 -4.679688 3.492188 -4.8125 3.046875 -4.8125 C 2.578125 -4.8125 2.207031 -4.675781 1.9375 -4.40625 C 1.664062 -4.144531 1.503906 -3.734375 1.453125 -3.171875 Z M 4.453125 -3.171875 "/></g></g></g><g fill="#ffffff" fill-opacity="1"><g transform="translate(179.818861, 20.549077)"><g><path d="M 1.078125 2.28125 C 0.890625 2.28125 0.71875 2.265625 0.5625 2.234375 C 0.40625 2.203125 0.269531 2.160156 0.15625 2.109375 L 0.3125 1.484375 L 0.390625 1.453125 C 0.472656 1.484375 0.570312 1.515625 0.6875 1.546875 C 0.800781 1.578125 0.921875 1.59375 1.046875 1.59375 C 1.265625 1.59375 1.441406 1.5625 1.578125 1.5 C 1.722656 1.4375 1.847656 1.335938 1.953125 1.203125 C 2.054688 1.078125 2.15625 0.894531 2.25 0.65625 L 2.4375 0.125 L 0.265625 -5.375 L 1.125 -5.375 L 2.828125 -0.984375 L 2.921875 -0.984375 L 4.546875 -5.375 L 5.375 -5.375 L 2.96875 0.84375 C 2.832031 1.1875 2.675781 1.460938 2.5 1.671875 C 2.332031 1.878906 2.132812 2.03125 1.90625 2.125 C 1.675781 2.226562 1.398438 2.28125 1.078125 2.28125 Z M 1.078125 2.28125 "/></g></g></g><g fill="#603a12" fill-opacity="1"><g transform="translate(66.003006, 208.823597)"><g><path d="M 1.265625 0 L 1.265625 -14.203125 L 5.640625 -14.203125 C 6.890625 -14.203125 8.003906 -13.921875 8.984375 -13.359375 C 9.972656 -12.796875 10.742188 -11.992188 11.296875 -10.953125 C 11.847656 -9.921875 12.125 -8.742188 12.125 -7.421875 L 12.125 -6.765625 C 12.125 -5.453125 11.851562 -4.28125 11.3125 -3.25 C 10.769531 -2.21875 10.003906 -1.421875 9.015625 -0.859375 C 8.023438 -0.296875 6.910156 -0.0078125 5.671875 0 Z M 4.203125 -11.84375 L 4.203125 -2.359375 L 5.609375 -2.359375 C 6.753906 -2.359375 7.628906 -2.726562 8.234375 -3.46875 C 8.835938 -4.21875 9.144531 -5.289062 9.15625 -6.6875 L 9.15625 -7.4375 C 9.15625 -8.882812 8.859375 -9.976562 8.265625 -10.71875 C 7.671875 -11.46875 6.796875 -11.84375 5.640625 -11.84375 Z M 4.203125 -11.84375 "/></g></g></g><g fill="#603a12" fill-opacity="1"><g transform="translate(78.989045, 208.823597)"><g><path d="M 7.015625 -7.90625 C 6.628906 -7.957031 6.289062 -7.984375 6 -7.984375 C 4.9375 -7.984375 4.238281 -7.625 3.90625 -6.90625 L 3.90625 0 L 1.078125 0 L 1.078125 -10.5625 L 3.75 -10.5625 L 3.828125 -9.296875 C 4.390625 -10.265625 5.171875 -10.75 6.171875 -10.75 C 6.484375 -10.75 6.78125 -10.707031 7.0625 -10.625 Z M 7.015625 -7.90625 "/></g></g></g><g fill="#603a12" fill-opacity="1"><g transform="translate(86.277227, 208.823597)"><g><path d="M 5.03125 -3.984375 L 6.984375 -10.5625 L 10 -10.5625 L 5.75 1.640625 L 5.515625 2.203125 C 4.890625 3.578125 3.851562 4.265625 2.40625 4.265625 C 1.988281 4.265625 1.570312 4.203125 1.15625 4.078125 L 1.15625 1.9375 L 1.578125 1.953125 C 2.109375 1.953125 2.503906 1.867188 2.765625 1.703125 C 3.035156 1.546875 3.242188 1.273438 3.390625 0.890625 L 3.734375 0.03125 L 0.03125 -10.5625 L 3.0625 -10.5625 Z M 5.03125 -3.984375 "/></g></g></g><g fill="#603a12" fill-opacity="1"><g transform="translate(96.307015, 208.823597)"><g/></g></g><g fill="#603a12" fill-opacity="1"><g transform="translate(101.282883, 208.823597)"><g><path d="M 8.640625 -3.734375 C 8.640625 -4.285156 8.441406 -4.707031 8.046875 -5 C 7.660156 -5.289062 6.957031 -5.601562 5.9375 -5.9375 C 4.925781 -6.269531 4.125 -6.59375 3.53125 -6.90625 C 1.914062 -7.78125 1.109375 -8.957031 1.109375 -10.4375 C 1.109375 -11.195312 1.320312 -11.878906 1.75 -12.484375 C 2.1875 -13.085938 2.8125 -13.554688 3.625 -13.890625 C 4.4375 -14.234375 5.347656 -14.40625 6.359375 -14.40625 C 7.367188 -14.40625 8.269531 -14.21875 9.0625 -13.84375 C 9.851562 -13.476562 10.46875 -12.960938 10.90625 -12.296875 C 11.351562 -11.628906 11.578125 -10.867188 11.578125 -10.015625 L 8.640625 -10.015625 C 8.640625 -10.660156 8.4375 -11.164062 8.03125 -11.53125 C 7.625 -11.894531 7.046875 -12.078125 6.296875 -12.078125 C 5.585938 -12.078125 5.035156 -11.921875 4.640625 -11.609375 C 4.242188 -11.304688 4.046875 -10.910156 4.046875 -10.421875 C 4.046875 -9.960938 4.273438 -9.578125 4.734375 -9.265625 C 5.203125 -8.953125 5.890625 -8.65625 6.796875 -8.375 C 8.460938 -7.875 9.675781 -7.253906 10.4375 -6.515625 C 11.195312 -5.773438 11.578125 -4.851562 11.578125 -3.75 C 11.578125 -2.519531 11.109375 -1.554688 10.171875 -0.859375 C 9.242188 -0.160156 7.992188 0.1875 6.421875 0.1875 C 5.328125 0.1875 4.332031 -0.0078125 3.4375 -0.40625 C 2.539062 -0.800781 1.851562 -1.347656 1.375 -2.046875 C 0.90625 -2.742188 0.671875 -3.550781 0.671875 -4.46875 L 3.609375 -4.46875 C 3.609375 -2.90625 4.546875 -2.125 6.421875 -2.125 C 7.117188 -2.125 7.660156 -2.265625 8.046875 -2.546875 C 8.441406 -2.828125 8.640625 -3.222656 8.640625 -3.734375 Z M 8.640625 -3.734375 "/></g></g></g><g fill="#603a12" fill-opacity="1"><g transform="translate(113.566446, 208.823597)"><g><path d="M 4.453125 -13.15625 L 4.453125 -10.5625 L 6.265625 -10.5625 L 6.265625 -8.484375 L 4.453125 -8.484375 L 4.453125 -3.21875 C 4.453125 -2.832031 4.523438 -2.550781 4.671875 -2.375 C 4.828125 -2.207031 5.117188 -2.125 5.546875 -2.125 C 5.859375 -2.125 6.132812 -2.148438 6.375 -2.203125 L 6.375 -0.0625 C 5.820312 0.101562 5.253906 0.1875 4.671875 0.1875 C 2.691406 0.1875 1.679688 -0.804688 1.640625 -2.796875 L 1.640625 -8.484375 L 0.09375 -8.484375 L 0.09375 -10.5625 L 1.640625 -10.5625 L 1.640625 -13.15625 Z M 4.453125 -13.15625 "/></g></g></g><g fill="#603a12" fill-opacity="1"><g transform="translate(120.318016, 208.823597)"><g><path d="M 7.203125 0 C 7.066406 -0.25 6.972656 -0.566406 6.921875 -0.953125 C 6.234375 -0.191406 5.34375 0.1875 4.25 0.1875 C 3.21875 0.1875 2.359375 -0.109375 1.671875 -0.703125 C 0.992188 -1.296875 0.65625 -2.050781 0.65625 -2.96875 C 0.65625 -4.082031 1.070312 -4.9375 1.90625 -5.53125 C 2.738281 -6.132812 3.9375 -6.441406 5.5 -6.453125 L 6.796875 -6.453125 L 6.796875 -7.0625 C 6.796875 -7.539062 6.671875 -7.925781 6.421875 -8.21875 C 6.171875 -8.519531 5.773438 -8.671875 5.234375 -8.671875 C 4.765625 -8.671875 4.394531 -8.554688 4.125 -8.328125 C 3.851562 -8.097656 3.71875 -7.785156 3.71875 -7.390625 L 0.890625 -7.390625 C 0.890625 -7.992188 1.078125 -8.554688 1.453125 -9.078125 C 1.835938 -9.597656 2.375 -10.003906 3.0625 -10.296875 C 3.75 -10.597656 4.523438 -10.75 5.390625 -10.75 C 6.691406 -10.75 7.722656 -10.421875 8.484375 -9.765625 C 9.242188 -9.117188 9.625 -8.203125 9.625 -7.015625 L 9.625 -2.4375 C 9.632812 -1.4375 9.773438 -0.679688 10.046875 -0.171875 L 10.046875 0 Z M 4.875 -1.96875 C 5.289062 -1.96875 5.671875 -2.054688 6.015625 -2.234375 C 6.367188 -2.421875 6.628906 -2.671875 6.796875 -2.984375 L 6.796875 -4.796875 L 5.75 -4.796875 C 4.332031 -4.796875 3.582031 -4.3125 3.5 -3.34375 L 3.484375 -3.171875 C 3.484375 -2.816406 3.601562 -2.523438 3.84375 -2.296875 C 4.09375 -2.078125 4.4375 -1.96875 4.875 -1.96875 Z M 4.875 -1.96875 "/></g></g></g><g fill="#603a12" fill-opacity="1"><g transform="translate(131.030766, 208.823597)"><g><path d="M 4.453125 -13.15625 L 4.453125 -10.5625 L 6.265625 -10.5625 L 6.265625 -8.484375 L 4.453125 -8.484375 L 4.453125 -3.21875 C 4.453125 -2.832031 4.523438 -2.550781 4.671875 -2.375 C 4.828125 -2.207031 5.117188 -2.125 5.546875 -2.125 C 5.859375 -2.125 6.132812 -2.148438 6.375 -2.203125 L 6.375 -0.0625 C 5.820312 0.101562 5.253906 0.1875 4.671875 0.1875 C 2.691406 0.1875 1.679688 -0.804688 1.640625 -2.796875 L 1.640625 -8.484375 L 0.09375 -8.484375 L 0.09375 -10.5625 L 1.640625 -10.5625 L 1.640625 -13.15625 Z M 4.453125 -13.15625 "/></g></g></g><g fill="#603a12" fill-opacity="1"><g transform="translate(137.782336, 208.823597)"><g><path d="M 5.9375 0.1875 C 4.394531 0.1875 3.132812 -0.285156 2.15625 -1.234375 C 1.1875 -2.179688 0.703125 -3.445312 0.703125 -5.03125 L 0.703125 -5.296875 C 0.703125 -6.359375 0.90625 -7.304688 1.3125 -8.140625 C 1.726562 -8.972656 2.3125 -9.613281 3.0625 -10.0625 C 3.8125 -10.519531 4.664062 -10.75 5.625 -10.75 C 7.070312 -10.75 8.207031 -10.289062 9.03125 -9.375 C 9.863281 -8.46875 10.28125 -7.179688 10.28125 -5.515625 L 10.28125 -4.359375 L 3.5625 -4.359375 C 3.65625 -3.671875 3.929688 -3.117188 4.390625 -2.703125 C 4.847656 -2.285156 5.425781 -2.078125 6.125 -2.078125 C 7.207031 -2.078125 8.054688 -2.472656 8.671875 -3.265625 L 10.0625 -1.703125 C 9.632812 -1.109375 9.0625 -0.644531 8.34375 -0.3125 C 7.625 0.0195312 6.820312 0.1875 5.9375 0.1875 Z M 5.625 -8.46875 C 5.0625 -8.46875 4.601562 -8.28125 4.25 -7.90625 C 3.90625 -7.53125 3.6875 -6.988281 3.59375 -6.28125 L 7.515625 -6.28125 L 7.515625 -6.515625 C 7.503906 -7.140625 7.332031 -7.617188 7 -7.953125 C 6.675781 -8.296875 6.21875 -8.46875 5.625 -8.46875 Z M 5.625 -8.46875 "/></g></g></g><g fill="#603a12" fill-opacity="1"><g transform="translate(148.582895, 208.823597)"><g><path d="M 6.796875 -2.921875 C 6.796875 -3.265625 6.625 -3.535156 6.28125 -3.734375 C 5.945312 -3.929688 5.398438 -4.109375 4.640625 -4.265625 C 2.128906 -4.785156 0.875 -5.851562 0.875 -7.46875 C 0.875 -8.40625 1.257812 -9.1875 2.03125 -9.8125 C 2.8125 -10.4375 3.832031 -10.75 5.09375 -10.75 C 6.4375 -10.75 7.507812 -10.429688 8.3125 -9.796875 C 9.113281 -9.171875 9.515625 -8.351562 9.515625 -7.34375 L 6.6875 -7.34375 C 6.6875 -7.75 6.554688 -8.082031 6.296875 -8.34375 C 6.035156 -8.613281 5.628906 -8.75 5.078125 -8.75 C 4.609375 -8.75 4.242188 -8.640625 3.984375 -8.421875 C 3.722656 -8.203125 3.59375 -7.925781 3.59375 -7.59375 C 3.59375 -7.289062 3.738281 -7.039062 4.03125 -6.84375 C 4.332031 -6.65625 4.832031 -6.488281 5.53125 -6.34375 C 6.238281 -6.207031 6.832031 -6.050781 7.3125 -5.875 C 8.800781 -5.320312 9.546875 -4.375 9.546875 -3.03125 C 9.546875 -2.070312 9.128906 -1.296875 8.296875 -0.703125 C 7.472656 -0.109375 6.410156 0.1875 5.109375 0.1875 C 4.222656 0.1875 3.4375 0.03125 2.75 -0.28125 C 2.0625 -0.59375 1.519531 -1.023438 1.125 -1.578125 C 0.738281 -2.128906 0.546875 -2.722656 0.546875 -3.359375 L 3.21875 -3.359375 C 3.25 -2.859375 3.4375 -2.472656 3.78125 -2.203125 C 4.125 -1.941406 4.582031 -1.8125 5.15625 -1.8125 C 5.695312 -1.8125 6.101562 -1.910156 6.375 -2.109375 C 6.65625 -2.316406 6.796875 -2.585938 6.796875 -2.921875 Z M 6.796875 -2.921875 "/></g></g></g></svg>