<svg xmlns="http://www.w3.org/2000/svg" xmlns:xlink="http://www.w3.org/1999/xlink" width="300" zoomAndPan="magnify" viewBox="0 0 224.87999 225" height="300" preserveAspectRatio="xMidYMid meet" version="1.0"><defs><g/><clipPath id="9b34f31d35"><path d="M 96 142 L 114 142 L 114 171.398438 L 96 171.398438 Z M 96 142 " clip-rule="nonzero"/></clipPath></defs><path fill="#63a7c9" d="M 190.574219 82.828125 C 190.574219 83.988281 190.515625 85.140625 190.402344 86.292969 C 190.289062 87.445312 190.121094 88.589844 189.894531 89.726562 C 189.667969 90.863281 189.386719 91.984375 189.050781 93.09375 C 188.714844 94.199219 188.324219 95.289062 187.882812 96.359375 C 187.441406 97.429688 186.945312 98.476562 186.398438 99.496094 C 185.855469 100.519531 185.257812 101.511719 184.617188 102.472656 C 183.972656 103.4375 183.285156 104.363281 182.546875 105.261719 C 181.8125 106.15625 181.039062 107.011719 180.21875 107.832031 C 179.398438 108.648438 178.542969 109.425781 177.648438 110.160156 C 176.753906 110.894531 175.824219 111.585938 174.859375 112.230469 C 173.898438 112.871094 172.90625 113.464844 171.886719 114.011719 C 170.863281 114.558594 169.816406 115.054688 168.75 115.496094 C 167.679688 115.9375 166.589844 116.328125 165.480469 116.664062 C 164.375 117 163.25 117.28125 162.117188 117.507812 C 160.980469 117.734375 159.835938 117.902344 158.683594 118.015625 C 157.53125 118.132812 156.375 118.1875 155.21875 118.1875 L 56.394531 118.1875 C 55.667969 118.1875 54.941406 118.152344 54.21875 118.085938 C 53.496094 118.015625 52.777344 117.914062 52.0625 117.777344 C 51.347656 117.640625 50.644531 117.472656 49.945312 117.269531 C 49.246094 117.066406 48.5625 116.832031 47.886719 116.5625 C 47.210938 116.296875 46.546875 115.996094 45.902344 115.667969 C 45.253906 115.335938 44.621094 114.976562 44.007812 114.589844 C 43.394531 114.199219 42.800781 113.78125 42.226562 113.335938 C 41.652344 112.890625 41.101562 112.421875 40.570312 111.921875 C 40.039062 111.425781 39.535156 110.90625 39.054688 110.359375 C 38.574219 109.816406 38.121094 109.25 37.691406 108.660156 C 37.265625 108.074219 36.867188 107.464844 36.496094 106.839844 C 36.125 106.214844 35.785156 105.574219 35.476562 104.917969 C 35.167969 104.257812 34.886719 103.589844 34.640625 102.90625 C 34.394531 102.222656 34.179688 101.527344 34 100.824219 C 33.820312 100.121094 33.671875 99.410156 33.554688 98.691406 C 33.441406 97.972656 33.363281 97.253906 33.316406 96.527344 C 33.269531 95.800781 33.257812 95.074219 33.28125 94.347656 C 33.300781 93.621094 33.359375 92.898438 33.449219 92.179688 C 33.539062 91.457031 33.664062 90.742188 33.820312 90.03125 C 33.980469 89.324219 34.167969 88.621094 34.394531 87.929688 C 34.617188 87.238281 34.875 86.558594 35.160156 85.894531 C 35.449219 85.226562 35.765625 84.574219 36.117188 83.9375 C 36.464844 83.296875 36.84375 82.679688 37.253906 82.078125 C 37.660156 81.476562 38.09375 80.894531 38.558594 80.335938 C 39.019531 79.773438 39.507812 79.234375 40.019531 78.722656 C 40.535156 78.207031 41.070312 77.71875 41.628906 77.253906 C 42.1875 76.789062 42.769531 76.351562 43.367188 75.941406 C 43.96875 75.535156 44.585938 75.152344 45.222656 74.800781 C 45.859375 74.453125 46.511719 74.128906 47.179688 73.839844 C 47.84375 73.550781 48.523438 73.292969 49.214844 73.066406 C 49.90625 72.84375 50.605469 72.648438 51.3125 72.488281 C 52.023438 72.328125 52.738281 72.203125 53.457031 72.109375 C 53.492188 71.527344 53.558594 70.949219 53.65625 70.371094 C 53.753906 69.796875 53.886719 69.226562 54.046875 68.664062 C 54.210938 68.101562 54.40625 67.550781 54.628906 67.011719 C 54.855469 66.472656 55.109375 65.949219 55.394531 65.4375 C 55.675781 64.925781 55.988281 64.433594 56.328125 63.957031 C 56.667969 63.480469 57.03125 63.023438 57.421875 62.589844 C 57.8125 62.15625 58.226562 61.746094 58.664062 61.355469 C 59.101562 60.96875 59.558594 60.605469 60.039062 60.269531 C 60.515625 59.933594 61.011719 59.625 61.523438 59.34375 C 62.035156 59.0625 62.5625 58.8125 63.105469 58.589844 C 63.644531 58.367188 64.195312 58.175781 64.757812 58.019531 C 65.320312 57.859375 65.890625 57.730469 66.46875 57.636719 C 67.046875 57.542969 67.625 57.476562 68.210938 57.449219 C 68.792969 57.417969 69.375 57.421875 69.960938 57.457031 C 70.542969 57.492188 71.125 57.5625 71.699219 57.664062 C 72.273438 57.765625 72.84375 57.898438 73.402344 58.0625 C 73.960938 56.367188 74.636719 54.71875 75.429688 53.121094 C 76.226562 51.523438 77.128906 49.988281 78.140625 48.515625 C 79.152344 47.046875 80.265625 45.65625 81.476562 44.34375 C 82.6875 43.03125 83.984375 41.8125 85.371094 40.6875 C 86.753906 39.5625 88.210938 38.539062 89.742188 37.621094 C 91.273438 36.703125 92.863281 35.898438 94.507812 35.207031 C 96.152344 34.515625 97.839844 33.945312 99.566406 33.492188 C 101.292969 33.042969 103.042969 32.71875 104.816406 32.515625 C 106.59375 32.316406 108.371094 32.242188 110.15625 32.292969 C 111.9375 32.347656 113.710938 32.527344 115.46875 32.832031 C 117.226562 33.140625 118.957031 33.566406 120.652344 34.121094 C 122.351562 34.671875 124 35.34375 125.601562 36.132812 C 127.203125 36.917969 128.742188 37.816406 130.214844 38.824219 C 131.6875 39.832031 133.082031 40.9375 134.398438 42.144531 C 135.714844 43.351562 136.9375 44.644531 138.066406 46.027344 C 139.199219 47.410156 140.226562 48.863281 141.148438 50.390625 C 141.816406 50.101562 142.496094 49.832031 143.183594 49.585938 C 143.867188 49.335938 144.5625 49.109375 145.261719 48.90625 C 145.960938 48.699219 146.667969 48.519531 147.378906 48.355469 C 148.089844 48.195312 148.804688 48.054688 149.523438 47.9375 C 150.242188 47.820312 150.96875 47.726562 151.691406 47.65625 C 152.417969 47.582031 153.144531 47.53125 153.875 47.503906 C 154.601562 47.476562 155.332031 47.472656 156.0625 47.492188 C 156.789062 47.507812 157.519531 47.550781 158.246094 47.613281 C 158.972656 47.675781 159.695312 47.761719 160.417969 47.867188 C 161.136719 47.976562 161.855469 48.105469 162.570312 48.257812 C 163.28125 48.410156 163.988281 48.582031 164.691406 48.777344 C 165.394531 48.972656 166.089844 49.191406 166.78125 49.429688 C 167.46875 49.667969 168.152344 49.929688 168.824219 50.210938 C 169.496094 50.492188 170.160156 50.792969 170.816406 51.113281 C 171.46875 51.4375 172.113281 51.777344 172.746094 52.140625 C 173.378906 52.5 174 52.882812 174.609375 53.28125 C 175.21875 53.683594 175.816406 54.101562 176.402344 54.539062 C 176.984375 54.976562 177.554688 55.429688 178.109375 55.902344 C 178.667969 56.375 179.207031 56.863281 179.730469 57.371094 C 180.257812 57.875 180.765625 58.398438 181.261719 58.933594 C 181.753906 59.472656 182.230469 60.023438 182.6875 60.589844 C 183.148438 61.160156 183.589844 61.738281 184.011719 62.332031 C 184.433594 62.925781 184.839844 63.535156 185.226562 64.152344 C 185.609375 64.773438 185.976562 65.402344 186.324219 66.042969 C 186.667969 66.6875 186.996094 67.335938 187.300781 68 C 187.609375 68.660156 187.894531 69.332031 188.160156 70.011719 C 188.425781 70.691406 188.667969 71.378906 188.890625 72.074219 C 189.113281 72.769531 189.3125 73.46875 189.492188 74.175781 C 189.671875 74.882812 189.828125 75.59375 189.964844 76.3125 C 190.097656 77.027344 190.210938 77.75 190.300781 78.472656 C 190.390625 79.195312 190.460938 79.921875 190.503906 80.648438 C 190.550781 81.378906 190.574219 82.105469 190.574219 82.835938 Z M 190.574219 82.828125 " fill-opacity="1" fill-rule="nonzero"/><path fill="#89cbe5" d="M 190.574219 82.828125 C 190.574219 83.648438 190.542969 84.453125 190.492188 85.253906 L 188.792969 82.328125 C 161.777344 42.828125 121.605469 75.226562 121.605469 75.226562 C 123.679688 62.113281 130.617188 55.097656 130.617188 55.097656 C 107.980469 29.691406 76.996094 50.308594 76.996094 50.308594 C 77.414062 49.621094 77.851562 48.953125 78.3125 48.292969 C 78.769531 47.636719 79.25 46.996094 79.75 46.367188 C 80.253906 45.742188 80.773438 45.132812 81.3125 44.539062 C 81.851562 43.945312 82.410156 43.367188 82.988281 42.8125 C 83.566406 42.253906 84.160156 41.714844 84.769531 41.195312 C 85.382812 40.675781 86.007812 40.175781 86.652344 39.699219 C 87.296875 39.21875 87.953125 38.761719 88.625 38.324219 C 89.300781 37.886719 89.984375 37.472656 90.683594 37.078125 C 91.382812 36.6875 92.09375 36.316406 92.816406 35.96875 C 93.542969 35.621094 94.273438 35.296875 95.019531 35 C 95.761719 34.699219 96.515625 34.421875 97.277344 34.171875 C 98.039062 33.917969 98.808594 33.691406 99.582031 33.488281 C 100.359375 33.285156 101.140625 33.109375 101.929688 32.957031 C 102.714844 32.804688 103.507812 32.675781 104.304688 32.574219 C 105.097656 32.472656 105.898438 32.398438 106.699219 32.347656 C 107.5 32.296875 108.300781 32.269531 109.101562 32.273438 C 109.902344 32.273438 110.707031 32.300781 111.503906 32.351562 C 112.304688 32.40625 113.105469 32.480469 113.898438 32.585938 C 114.695312 32.6875 115.484375 32.816406 116.273438 32.972656 C 117.058594 33.125 117.839844 33.304688 118.617188 33.511719 C 119.394531 33.714844 120.160156 33.945312 120.921875 34.199219 C 121.683594 34.453125 122.433594 34.730469 123.179688 35.03125 C 123.921875 35.332031 124.65625 35.660156 125.375 36.007812 C 126.097656 36.355469 126.808594 36.726562 127.507812 37.121094 C 128.207031 37.515625 128.890625 37.933594 129.5625 38.371094 C 130.234375 38.8125 130.890625 39.269531 131.535156 39.75 C 132.175781 40.230469 132.800781 40.734375 133.414062 41.253906 C 134.023438 41.773438 134.617188 42.3125 135.191406 42.871094 C 135.765625 43.429688 136.324219 44.007812 136.863281 44.601562 C 137.398438 45.199219 137.917969 45.808594 138.417969 46.4375 C 138.917969 47.0625 139.394531 47.707031 139.855469 48.367188 C 140.3125 49.023438 140.75 49.695312 141.164062 50.382812 C 141.832031 50.09375 142.511719 49.824219 143.195312 49.578125 C 143.882812 49.328125 144.574219 49.101562 145.277344 48.898438 C 145.976562 48.691406 146.679688 48.511719 147.390625 48.347656 C 148.105469 48.1875 148.820312 48.046875 149.539062 47.929688 C 150.257812 47.8125 150.980469 47.71875 151.707031 47.648438 C 152.433594 47.574219 153.160156 47.523438 153.890625 47.496094 C 154.617188 47.46875 155.347656 47.464844 156.078125 47.484375 C 156.804688 47.5 157.535156 47.542969 158.261719 47.605469 C 158.988281 47.667969 159.710938 47.753906 160.433594 47.859375 C 161.152344 47.96875 161.871094 48.097656 162.582031 48.25 C 163.296875 48.402344 164.003906 48.574219 164.707031 48.769531 C 165.410156 48.964844 166.105469 49.183594 166.796875 49.421875 C 167.484375 49.660156 168.164062 49.921875 168.839844 50.203125 C 169.511719 50.484375 170.175781 50.785156 170.828125 51.105469 C 171.484375 51.429688 172.128906 51.769531 172.761719 52.132812 C 173.394531 52.492188 174.015625 52.875 174.625 53.273438 C 175.234375 53.675781 175.832031 54.09375 176.417969 54.53125 C 177 54.96875 177.570312 55.421875 178.125 55.894531 C 178.679688 56.367188 179.222656 56.855469 179.746094 57.363281 C 180.273438 57.867188 180.78125 58.390625 181.273438 58.929688 C 181.769531 59.464844 182.246094 60.015625 182.703125 60.585938 C 183.164062 61.152344 183.605469 61.730469 184.027344 62.324219 C 184.449219 62.917969 184.855469 63.527344 185.238281 64.144531 C 185.625 64.765625 185.992188 65.394531 186.339844 66.035156 C 186.683594 66.679688 187.011719 67.328125 187.316406 67.992188 C 187.625 68.652344 187.910156 69.324219 188.175781 70.003906 C 188.4375 70.683594 188.683594 71.371094 188.90625 72.066406 C 189.128906 72.761719 189.328125 73.460938 189.507812 74.167969 C 189.6875 74.875 189.84375 75.585938 189.976562 76.304688 C 190.113281 77.019531 190.226562 77.742188 190.316406 78.464844 C 190.40625 79.1875 190.476562 79.914062 190.519531 80.640625 C 190.566406 81.371094 190.589844 82.097656 190.589844 82.828125 Z M 190.574219 82.828125 " fill-opacity="1" fill-rule="nonzero"/><path fill="#008bc1" d="M 83.378906 118.1875 L 56.394531 118.1875 C 55.058594 118.1875 53.734375 118.070312 52.421875 117.84375 C 51.105469 117.613281 49.824219 117.273438 48.566406 116.820312 C 47.3125 116.367188 46.105469 115.8125 44.945312 115.152344 C 43.785156 114.492188 42.691406 113.734375 41.664062 112.886719 C 40.636719 112.035156 39.6875 111.101562 38.820312 110.089844 C 37.953125 109.074219 37.179688 107.992188 36.5 106.84375 C 35.820312 105.699219 35.242188 104.5 34.769531 103.253906 C 34.296875 102.003906 33.933594 100.726562 33.683594 99.414062 C 33.429688 98.105469 33.292969 96.78125 33.273438 95.449219 C 33.25 94.113281 33.339844 92.789062 33.546875 91.46875 C 33.753906 90.152344 34.070312 88.859375 34.5 87.597656 C 34.933594 86.335938 35.46875 85.117188 36.105469 83.945312 C 36.746094 82.777344 37.484375 81.667969 38.316406 80.625 C 39.148438 79.582031 40.0625 78.617188 41.0625 77.734375 C 42.058594 76.847656 43.128906 76.058594 44.261719 75.355469 C 45.398438 74.65625 46.585938 74.058594 47.824219 73.566406 C 48.460938 87.449219 54.773438 107.609375 83.378906 118.1875 Z M 83.378906 118.1875 " fill-opacity="1" fill-rule="nonzero"/><path fill="#003166" d="M 155.21875 45.59375 C 150.625 45.585938 146.183594 46.40625 141.890625 48.050781 C 140.898438 46.546875 139.800781 45.117188 138.609375 43.761719 C 137.417969 42.40625 136.140625 41.140625 134.773438 39.960938 C 133.40625 38.785156 131.964844 37.703125 130.453125 36.722656 C 128.9375 35.742188 127.363281 34.871094 125.726562 34.105469 C 124.09375 33.339844 122.414062 32.691406 120.691406 32.15625 C 118.964844 31.625 117.214844 31.210938 115.433594 30.917969 C 113.652344 30.625 111.859375 30.453125 110.058594 30.40625 C 108.253906 30.359375 106.453125 30.4375 104.660156 30.636719 C 102.867188 30.839844 101.097656 31.160156 99.347656 31.605469 C 97.597656 32.050781 95.890625 32.609375 94.21875 33.289062 C 92.546875 33.96875 90.925781 34.757812 89.363281 35.660156 C 87.800781 36.5625 86.304688 37.566406 84.882812 38.671875 C 83.457031 39.777344 82.113281 40.976562 80.851562 42.269531 C 79.589844 43.558594 78.425781 44.929688 77.351562 46.382812 C 76.28125 47.832031 75.3125 49.351562 74.449219 50.933594 C 73.585938 52.519531 72.832031 54.15625 72.195312 55.84375 C 71.617188 55.738281 71.039062 55.660156 70.457031 55.609375 C 69.871094 55.5625 69.285156 55.542969 68.699219 55.554688 C 68.117188 55.5625 67.53125 55.605469 66.949219 55.671875 C 66.367188 55.742188 65.792969 55.839844 65.21875 55.96875 C 64.648438 56.09375 64.085938 56.25 63.527344 56.433594 C 62.972656 56.617188 62.425781 56.832031 61.890625 57.070312 C 61.355469 57.308594 60.835938 57.574219 60.328125 57.863281 C 59.820312 58.15625 59.328125 58.472656 58.851562 58.8125 C 58.375 59.15625 57.917969 59.519531 57.476562 59.90625 C 57.039062 60.292969 56.617188 60.699219 56.21875 61.128906 C 55.820312 61.558594 55.445312 62.007812 55.089844 62.476562 C 54.738281 62.941406 54.410156 63.425781 54.105469 63.925781 C 53.800781 64.425781 53.519531 64.941406 53.265625 65.46875 C 53.015625 65.996094 52.789062 66.535156 52.589844 67.089844 C 52.390625 67.640625 52.222656 68.199219 52.078125 68.765625 C 51.9375 69.335938 51.824219 69.910156 51.738281 70.488281 C 50.984375 70.632812 50.238281 70.8125 49.5 71.027344 C 48.761719 71.242188 48.035156 71.488281 47.316406 71.769531 C 46.601562 72.050781 45.902344 72.367188 45.214844 72.710938 C 44.527344 73.058594 43.859375 73.433594 43.207031 73.839844 C 42.554688 74.25 41.925781 74.683594 41.3125 75.152344 C 40.703125 75.617188 40.113281 76.109375 39.546875 76.628906 C 38.980469 77.148438 38.4375 77.695312 37.921875 78.265625 C 37.40625 78.835938 36.917969 79.425781 36.457031 80.042969 C 35.996094 80.65625 35.566406 81.292969 35.160156 81.945312 C 34.757812 82.601562 34.386719 83.273438 34.046875 83.960938 C 33.707031 84.652344 33.398438 85.355469 33.121094 86.074219 C 32.847656 86.789062 32.605469 87.519531 32.394531 88.257812 C 32.1875 89 32.011719 89.746094 31.871094 90.503906 C 31.734375 91.257812 31.628906 92.019531 31.558594 92.785156 C 31.488281 93.550781 31.453125 94.316406 31.457031 95.085938 C 31.457031 95.855469 31.492188 96.621094 31.566406 97.386719 C 31.636719 98.152344 31.746094 98.914062 31.886719 99.667969 C 32.027344 100.425781 32.207031 101.171875 32.414062 101.910156 C 32.625 102.648438 32.871094 103.378906 33.148438 104.09375 C 33.425781 104.8125 33.738281 105.511719 34.082031 106.203125 C 34.421875 106.890625 34.796875 107.5625 35.203125 108.214844 C 35.605469 108.867188 36.039062 109.5 36.503906 110.113281 C 36.964844 110.726562 37.457031 111.320312 37.972656 111.886719 C 38.492188 112.457031 39.035156 113 39.601562 113.519531 C 40.171875 114.035156 40.761719 114.527344 41.375 114.992188 C 41.984375 115.453125 42.617188 115.890625 43.273438 116.296875 C 43.925781 116.699219 44.59375 117.074219 45.28125 117.417969 C 45.96875 117.761719 46.671875 118.074219 47.390625 118.351562 C 48.105469 118.632812 48.832031 118.878906 49.570312 119.089844 C 50.308594 119.300781 51.058594 119.480469 51.8125 119.621094 C 52.566406 119.765625 53.328125 119.871094 54.09375 119.945312 C 54.859375 120.019531 55.625 120.054688 56.394531 120.058594 L 155.21875 120.058594 C 156.445312 120.070312 157.671875 120.023438 158.894531 119.914062 C 160.113281 119.804688 161.328125 119.636719 162.535156 119.40625 C 163.742188 119.175781 164.933594 118.890625 166.109375 118.542969 C 167.285156 118.195312 168.445312 117.792969 169.582031 117.332031 C 170.71875 116.871094 171.832031 116.355469 172.917969 115.785156 C 174.003906 115.210938 175.058594 114.589844 176.082031 113.914062 C 177.109375 113.238281 178.097656 112.511719 179.050781 111.742188 C 180.003906 110.96875 180.914062 110.148438 181.789062 109.285156 C 182.660156 108.421875 183.488281 107.515625 184.269531 106.570312 C 185.054688 105.625 185.785156 104.644531 186.472656 103.628906 C 187.160156 102.609375 187.792969 101.558594 188.375 100.480469 C 188.957031 99.398438 189.484375 98.292969 189.957031 97.160156 C 190.429688 96.027344 190.84375 94.875 191.203125 93.699219 C 191.558594 92.527344 191.859375 91.335938 192.101562 90.132812 C 192.34375 88.929688 192.523438 87.71875 192.644531 86.496094 C 192.765625 85.273438 192.824219 84.050781 192.824219 82.824219 C 192.824219 81.59375 192.765625 80.371094 192.644531 79.148438 C 192.523438 77.929688 192.34375 76.714844 192.101562 75.511719 C 191.859375 74.308594 191.558594 73.121094 191.203125 71.945312 C 190.84375 70.773438 190.429688 69.621094 189.957031 68.488281 C 189.484375 67.355469 188.957031 66.246094 188.375 65.167969 C 187.792969 64.085938 187.160156 63.035156 186.472656 62.019531 C 185.785156 61 185.054688 60.019531 184.269531 59.074219 C 183.488281 58.128906 182.660156 57.222656 181.789062 56.359375 C 180.914062 55.496094 180.003906 54.679688 179.050781 53.90625 C 178.097656 53.132812 177.109375 52.40625 176.082031 51.734375 C 175.058594 51.058594 174.003906 50.433594 172.917969 49.863281 C 171.832031 49.292969 170.71875 48.777344 169.582031 48.3125 C 168.445312 47.851562 167.285156 47.449219 166.109375 47.101562 C 164.933594 46.757812 163.742188 46.46875 162.535156 46.238281 C 161.328125 46.011719 160.113281 45.839844 158.894531 45.734375 C 157.671875 45.625 156.445312 45.574219 155.21875 45.589844 Z M 155.21875 116.308594 L 56.394531 116.308594 C 55.726562 116.308594 55.0625 116.277344 54.398438 116.214844 C 53.734375 116.152344 53.074219 116.058594 52.417969 115.933594 C 51.761719 115.804688 51.113281 115.652344 50.472656 115.464844 C 49.832031 115.277344 49.203125 115.0625 48.582031 114.816406 C 47.960938 114.570312 47.355469 114.296875 46.757812 113.992188 C 46.164062 113.691406 45.585938 113.359375 45.023438 113.003906 C 44.457031 112.644531 43.914062 112.261719 43.386719 111.851562 C 42.859375 111.445312 42.351562 111.011719 41.867188 110.554688 C 41.378906 110.097656 40.914062 109.617188 40.472656 109.117188 C 40.03125 108.617188 39.613281 108.097656 39.222656 107.558594 C 38.828125 107.019531 38.464844 106.460938 38.125 105.886719 C 37.785156 105.3125 37.472656 104.722656 37.1875 104.121094 C 36.902344 103.515625 36.644531 102.902344 36.417969 102.273438 C 36.191406 101.644531 35.996094 101.007812 35.828125 100.363281 C 35.664062 99.71875 35.527344 99.0625 35.421875 98.40625 C 35.316406 97.746094 35.242188 97.082031 35.199219 96.417969 C 35.15625 95.75 35.144531 95.085938 35.164062 94.417969 C 35.1875 93.75 35.238281 93.085938 35.320312 92.425781 C 35.402344 91.761719 35.515625 91.105469 35.660156 90.453125 C 35.804688 89.800781 35.980469 89.160156 36.183594 88.523438 C 36.390625 87.890625 36.625 87.265625 36.886719 86.652344 C 37.152344 86.039062 37.445312 85.441406 37.765625 84.855469 C 38.085938 84.269531 38.429688 83.699219 38.804688 83.148438 C 39.179688 82.59375 39.578125 82.058594 40.003906 81.546875 C 40.425781 81.03125 40.875 80.535156 41.34375 80.0625 C 41.816406 79.589844 42.308594 79.140625 42.820312 78.714844 C 43.332031 78.285156 43.867188 77.886719 44.417969 77.507812 C 44.96875 77.132812 45.535156 76.78125 46.117188 76.457031 C 46.703125 76.136719 47.300781 75.839844 47.910156 75.574219 C 48.523438 75.308594 49.144531 75.070312 49.78125 74.863281 C 50.414062 74.652344 51.054688 74.476562 51.707031 74.328125 C 52.359375 74.179688 53.015625 74.0625 53.675781 73.976562 C 55.082031 73.828125 56.484375 73.816406 57.894531 73.945312 C 59.300781 74.070312 60.679688 74.332031 62.035156 74.726562 C 63.394531 75.125 64.699219 75.648438 65.953125 76.296875 C 67.203125 76.949219 68.382812 77.714844 69.488281 78.597656 C 70.597656 79.457031 71.609375 80.421875 72.527344 81.484375 C 73.445312 82.550781 74.246094 83.695312 74.933594 84.917969 C 75.617188 86.144531 76.175781 87.425781 76.605469 88.765625 C 77.03125 90.101562 77.324219 91.46875 77.476562 92.867188 C 77.503906 93.097656 77.566406 93.316406 77.675781 93.523438 C 77.78125 93.730469 77.921875 93.910156 78.09375 94.066406 C 78.265625 94.222656 78.460938 94.339844 78.679688 94.421875 C 78.898438 94.503906 79.121094 94.546875 79.355469 94.542969 C 79.421875 94.546875 79.492188 94.546875 79.558594 94.542969 C 79.804688 94.519531 80.039062 94.445312 80.257812 94.328125 C 80.476562 94.207031 80.664062 94.050781 80.820312 93.855469 C 80.976562 93.664062 81.089844 93.449219 81.160156 93.207031 C 81.230469 92.96875 81.25 92.726562 81.226562 92.480469 C 81.046875 90.832031 80.707031 89.222656 80.207031 87.644531 C 79.703125 86.066406 79.046875 84.554688 78.242188 83.109375 C 77.4375 81.660156 76.492188 80.3125 75.414062 79.054688 C 74.335938 77.796875 73.144531 76.660156 71.839844 75.644531 C 69.539062 73.8125 66.996094 72.421875 64.214844 71.46875 C 61.433594 70.519531 58.574219 70.0625 55.636719 70.097656 C 55.734375 69.640625 55.859375 69.1875 56.003906 68.742188 C 56.148438 68.296875 56.320312 67.859375 56.507812 67.433594 C 56.699219 67.003906 56.914062 66.585938 57.144531 66.179688 C 57.378906 65.773438 57.632812 65.378906 57.90625 65 C 58.183594 64.621094 58.476562 64.253906 58.785156 63.90625 C 59.097656 63.554688 59.425781 63.222656 59.773438 62.902344 C 60.117188 62.585938 60.480469 62.289062 60.855469 62.011719 C 61.230469 61.730469 61.621094 61.472656 62.023438 61.230469 C 62.429688 60.992188 62.84375 60.773438 63.269531 60.578125 C 63.691406 60.378906 64.128906 60.207031 64.570312 60.054688 C 65.015625 59.902344 65.464844 59.773438 65.921875 59.664062 C 66.378906 59.558594 66.839844 59.476562 67.304688 59.417969 C 67.769531 59.359375 68.234375 59.324219 68.703125 59.3125 C 69.171875 59.304688 69.640625 59.316406 70.109375 59.355469 C 70.574219 59.390625 71.039062 59.453125 71.5 59.535156 C 71.960938 59.621094 72.417969 59.730469 72.867188 59.863281 C 73.101562 59.929688 73.339844 59.953125 73.582031 59.929688 C 73.824219 59.90625 74.054688 59.839844 74.269531 59.726562 C 74.488281 59.613281 74.675781 59.460938 74.832031 59.277344 C 74.988281 59.089844 75.105469 58.878906 75.183594 58.648438 C 75.699219 57.078125 76.324219 55.554688 77.050781 54.070312 C 77.78125 52.585938 78.609375 51.160156 79.535156 49.792969 C 80.460938 48.425781 81.480469 47.128906 82.585938 45.902344 C 83.695312 44.675781 84.882812 43.53125 86.148438 42.472656 C 87.414062 41.410156 88.75 40.441406 90.148438 39.566406 C 91.550781 38.691406 93.003906 37.914062 94.515625 37.242188 C 96.023438 36.570312 97.570312 36.003906 99.160156 35.546875 C 100.746094 35.085938 102.359375 34.742188 103.992188 34.507812 C 105.628906 34.273438 107.273438 34.15625 108.925781 34.148438 C 110.578125 34.144531 112.222656 34.253906 113.859375 34.476562 C 115.496094 34.703125 117.109375 35.039062 118.699219 35.484375 C 120.292969 35.933594 121.84375 36.488281 123.355469 37.152344 C 124.867188 37.816406 126.328125 38.582031 127.734375 39.449219 C 129.140625 40.316406 130.480469 41.277344 131.753906 42.332031 C 133.027344 43.386719 134.222656 44.523438 135.335938 45.742188 C 136.449219 46.960938 137.476562 48.25 138.410156 49.613281 C 136.882812 50.386719 135.417969 51.261719 134.011719 52.238281 C 132.601562 53.214844 131.269531 54.285156 130.011719 55.445312 C 128.75 56.605469 127.574219 57.84375 126.488281 59.167969 C 125.398438 60.488281 124.40625 61.878906 123.507812 63.339844 C 122.613281 64.796875 121.820312 66.3125 121.128906 67.878906 C 120.441406 69.449219 119.863281 71.054688 119.398438 72.703125 C 118.929688 74.351562 118.578125 76.023438 118.34375 77.71875 C 118.105469 79.414062 117.988281 81.121094 117.984375 82.832031 C 117.984375 83.082031 118.03125 83.320312 118.128906 83.550781 C 118.222656 83.78125 118.359375 83.984375 118.535156 84.160156 C 118.710938 84.335938 118.914062 84.472656 119.144531 84.566406 C 119.375 84.664062 119.613281 84.710938 119.863281 84.710938 C 120.113281 84.710938 120.351562 84.664062 120.582031 84.566406 C 120.8125 84.472656 121.015625 84.335938 121.191406 84.160156 C 121.367188 83.984375 121.5 83.78125 121.597656 83.550781 C 121.691406 83.320312 121.738281 83.082031 121.738281 82.832031 C 121.742188 81.210938 121.859375 79.59375 122.097656 77.988281 C 122.332031 76.382812 122.683594 74.804688 123.148438 73.25 C 123.613281 71.695312 124.1875 70.179688 124.875 68.710938 C 125.558594 67.238281 126.347656 65.824219 127.238281 64.46875 C 128.128906 63.109375 129.113281 61.824219 130.1875 60.609375 C 131.265625 59.398438 132.425781 58.265625 133.664062 57.222656 C 134.90625 56.175781 136.214844 55.226562 137.59375 54.367188 C 138.972656 53.511719 140.40625 52.761719 141.894531 52.113281 L 142.117188 52.011719 C 143.257812 51.53125 144.417969 51.109375 145.601562 50.753906 C 146.789062 50.398438 147.988281 50.113281 149.207031 49.890625 C 150.421875 49.667969 151.648438 49.515625 152.882812 49.429688 C 154.113281 49.34375 155.351562 49.324219 156.585938 49.375 C 157.820312 49.425781 159.050781 49.546875 160.273438 49.734375 C 161.496094 49.917969 162.703125 50.171875 163.898438 50.496094 C 165.09375 50.816406 166.265625 51.203125 167.417969 51.652344 C 168.570312 52.105469 169.695312 52.617188 170.789062 53.191406 C 171.882812 53.769531 172.941406 54.402344 173.96875 55.097656 C 174.992188 55.789062 175.976562 56.535156 176.917969 57.339844 C 177.859375 58.140625 178.753906 58.992188 179.601562 59.894531 C 180.449219 60.796875 181.242188 61.742188 181.984375 62.730469 C 182.726562 63.71875 183.414062 64.746094 184.042969 65.8125 C 184.671875 66.878906 185.238281 67.972656 185.746094 69.101562 C 186.253906 70.230469 186.695312 71.382812 187.074219 72.5625 C 187.453125 73.738281 187.765625 74.933594 188.015625 76.144531 C 188.261719 77.355469 188.441406 78.578125 188.550781 79.8125 C 188.664062 81.042969 188.707031 82.277344 188.679688 83.515625 C 188.65625 84.75 188.5625 85.984375 188.398438 87.210938 C 188.238281 88.433594 188.007812 89.648438 187.710938 90.851562 C 187.417969 92.050781 187.054688 93.230469 186.628906 94.394531 C 186.199219 95.554688 185.710938 96.6875 185.15625 97.792969 C 184.605469 98.902344 183.992188 99.972656 183.320312 101.011719 C 182.648438 102.050781 181.921875 103.050781 181.140625 104.007812 C 180.355469 104.964844 179.523438 105.878906 178.640625 106.742188 C 177.757812 107.609375 176.828125 108.421875 175.855469 109.1875 C 174.882812 109.949219 173.867188 110.65625 172.816406 111.304688 C 171.765625 111.957031 170.679688 112.546875 169.5625 113.078125 C 168.445312 113.609375 167.300781 114.074219 166.132812 114.476562 C 164.960938 114.882812 163.773438 115.21875 162.566406 115.492188 C 161.359375 115.761719 160.144531 115.96875 158.914062 116.105469 C 157.683594 116.242188 156.453125 116.308594 155.214844 116.308594 Z M 155.21875 116.308594 " fill-opacity="1" fill-rule="nonzero"/><path fill="#63a7c9" d="M 84.1875 143.816406 C 84.1875 150.894531 80.957031 152.667969 76.972656 152.667969 C 72.984375 152.667969 69.757812 150.894531 69.757812 143.816406 C 69.757812 136.738281 76.972656 127.035156 76.972656 127.035156 C 76.972656 127.035156 84.1875 136.738281 84.1875 143.816406 Z M 84.1875 143.816406 " fill-opacity="1" fill-rule="nonzero"/><path fill="#008bc1" d="M 83.757812 147.652344 C 82.765625 151.5625 80.097656 152.660156 76.960938 152.660156 C 72.976562 152.660156 69.746094 150.886719 69.746094 143.8125 C 69.746094 136.738281 76.960938 127.027344 76.960938 127.027344 C 76.960938 127.027344 77.28125 127.460938 77.792969 128.210938 C 76.027344 131.484375 74.304688 135.574219 74.304688 139.035156 C 74.304688 146.113281 77.535156 147.886719 81.519531 147.886719 C 82.273438 147.898438 83.019531 147.816406 83.757812 147.652344 Z M 83.757812 147.652344 " fill-opacity="1" fill-rule="nonzero"/><path fill="#003166" d="M 76.972656 154.171875 C 71.1875 154.171875 68.257812 150.683594 68.257812 143.816406 C 68.257812 136.328125 75.460938 126.542969 75.765625 126.136719 C 75.90625 125.945312 76.085938 125.796875 76.296875 125.691406 C 76.507812 125.585938 76.734375 125.53125 76.972656 125.53125 C 77.207031 125.53125 77.433594 125.585938 77.644531 125.691406 C 77.859375 125.796875 78.035156 125.945312 78.175781 126.136719 C 78.484375 126.550781 85.6875 136.328125 85.6875 143.816406 C 85.691406 150.683594 82.757812 154.171875 76.972656 154.171875 Z M 76.972656 129.683594 C 74.988281 132.707031 71.261719 139.023438 71.261719 143.816406 C 71.261719 150.277344 74.003906 151.164062 76.972656 151.164062 C 79.9375 151.164062 82.6875 150.277344 82.6875 143.816406 C 82.6875 139.015625 78.953125 132.707031 76.972656 129.683594 Z M 76.972656 129.683594 " fill-opacity="1" fill-rule="nonzero"/><path fill="#63a7c9" d="M 112.460938 161.050781 C 112.460938 168.128906 109.234375 169.902344 105.246094 169.902344 C 101.257812 169.902344 98.023438 168.128906 98.023438 161.050781 C 98.023438 153.972656 105.246094 144.269531 105.246094 144.269531 C 105.246094 144.269531 112.460938 153.972656 112.460938 161.050781 Z M 112.460938 161.050781 " fill-opacity="1" fill-rule="nonzero"/><path fill="#008bc1" d="M 112.042969 164.890625 C 111.050781 168.800781 108.382812 169.902344 105.246094 169.902344 C 101.261719 169.902344 98.03125 168.128906 98.03125 161.050781 C 98.03125 153.972656 105.246094 144.269531 105.246094 144.269531 C 105.246094 144.269531 105.566406 144.703125 106.078125 145.453125 C 104.3125 148.730469 102.589844 152.8125 102.589844 156.28125 C 102.589844 163.355469 105.820312 165.128906 109.804688 165.128906 C 110.558594 165.132812 111.304688 165.054688 112.042969 164.890625 Z M 112.042969 164.890625 " fill-opacity="1" fill-rule="nonzero"/><g clip-path="url(#9b34f31d35)"><path fill="#003166" d="M 105.246094 171.402344 C 99.460938 171.402344 96.53125 167.917969 96.53125 161.050781 C 96.53125 153.5625 103.734375 143.777344 104.039062 143.371094 C 104.179688 143.179688 104.359375 143.03125 104.570312 142.925781 C 104.78125 142.816406 105.007812 142.765625 105.246094 142.765625 C 105.484375 142.765625 105.707031 142.816406 105.917969 142.925781 C 106.132812 143.03125 106.308594 143.179688 106.449219 143.371094 C 106.757812 143.78125 113.960938 153.5625 113.960938 161.050781 C 113.964844 167.929688 111.03125 171.402344 105.246094 171.402344 Z M 105.246094 146.914062 C 103.261719 149.917969 99.53125 156.257812 99.53125 161.050781 C 99.53125 167.507812 102.273438 168.398438 105.242188 168.398438 C 108.207031 168.398438 110.957031 167.507812 110.957031 161.050781 C 110.960938 156.25 107.230469 149.933594 105.25 146.898438 Z M 105.246094 146.914062 " fill-opacity="1" fill-rule="nonzero"/></g><path fill="#63a7c9" d="M 137.945312 143.816406 C 137.945312 150.894531 134.71875 152.667969 130.730469 152.667969 C 126.742188 152.667969 123.515625 150.894531 123.515625 143.816406 C 123.515625 136.738281 130.730469 127.035156 130.730469 127.035156 C 130.730469 127.035156 137.945312 136.738281 137.945312 143.816406 Z M 137.945312 143.816406 " fill-opacity="1" fill-rule="nonzero"/><path fill="#008bc1" d="M 137.527344 147.652344 C 136.535156 151.558594 133.867188 152.660156 130.730469 152.660156 C 126.746094 152.660156 123.519531 150.886719 123.519531 143.8125 C 123.519531 136.738281 130.730469 127.027344 130.730469 127.027344 C 130.730469 127.027344 131.050781 127.460938 131.5625 128.210938 C 129.796875 131.484375 128.074219 135.574219 128.074219 139.035156 C 128.074219 146.109375 131.304688 147.882812 135.289062 147.882812 C 136.042969 147.890625 136.789062 147.816406 137.527344 147.652344 Z M 137.527344 147.652344 " fill-opacity="1" fill-rule="nonzero"/><path fill="#003166" d="M 130.734375 154.171875 C 124.945312 154.171875 122.015625 150.683594 122.015625 143.816406 C 122.015625 136.328125 129.21875 126.542969 129.523438 126.136719 C 129.664062 125.945312 129.84375 125.796875 130.054688 125.691406 C 130.265625 125.585938 130.492188 125.53125 130.730469 125.53125 C 130.964844 125.53125 131.191406 125.585938 131.402344 125.691406 C 131.617188 125.796875 131.792969 125.945312 131.933594 126.136719 C 132.238281 126.550781 139.445312 136.328125 139.445312 143.816406 C 139.449219 150.683594 136.515625 154.171875 130.734375 154.171875 Z M 130.734375 129.683594 C 128.75 132.6875 125.019531 139.023438 125.019531 143.816406 C 125.019531 150.277344 127.761719 151.164062 130.734375 151.164062 C 133.703125 151.164062 136.445312 150.277344 136.445312 143.816406 C 136.445312 139.015625 132.714844 132.703125 130.734375 129.683594 Z M 130.734375 129.683594 " fill-opacity="1" fill-rule="nonzero"/><path fill="#63a7c9" d="M 165.140625 150.355469 C 165.140625 157.433594 161.910156 159.207031 157.925781 159.207031 C 153.941406 159.207031 150.710938 157.433594 150.710938 150.355469 C 150.710938 143.277344 157.925781 133.574219 157.925781 133.574219 C 157.925781 133.574219 165.140625 143.277344 165.140625 150.355469 Z M 165.140625 150.355469 " fill-opacity="1" fill-rule="nonzero"/><path fill="#008bc1" d="M 164.722656 154.195312 C 163.730469 158.109375 161.0625 159.207031 157.925781 159.207031 C 153.941406 159.207031 150.710938 157.433594 150.710938 150.359375 C 150.710938 143.285156 157.925781 133.574219 157.925781 133.574219 C 157.925781 133.574219 158.246094 134.003906 158.753906 134.753906 C 156.996094 138.03125 155.269531 142.121094 155.269531 145.582031 C 155.269531 152.660156 158.5 154.433594 162.484375 154.433594 C 163.238281 154.441406 163.984375 154.359375 164.722656 154.195312 Z M 164.722656 154.195312 " fill-opacity="1" fill-rule="nonzero"/><path fill="#003166" d="M 157.925781 160.707031 C 152.144531 160.707031 149.210938 157.222656 149.210938 150.355469 C 149.210938 142.867188 156.414062 133.082031 156.71875 132.675781 C 156.863281 132.484375 157.039062 132.335938 157.25 132.230469 C 157.464844 132.121094 157.6875 132.070312 157.925781 132.070312 C 158.164062 132.070312 158.386719 132.121094 158.601562 132.230469 C 158.8125 132.335938 158.988281 132.484375 159.132812 132.675781 C 159.4375 133.089844 166.640625 142.867188 166.640625 150.355469 C 166.644531 157.222656 163.707031 160.707031 157.925781 160.707031 Z M 157.925781 136.21875 C 155.941406 139.242188 152.214844 145.5625 152.214844 150.355469 C 152.214844 156.8125 154.960938 157.703125 157.925781 157.703125 C 160.890625 157.703125 163.640625 156.8125 163.640625 150.355469 C 163.640625 145.5625 159.910156 139.242188 157.925781 136.21875 Z M 157.925781 136.21875 " fill-opacity="1" fill-rule="nonzero"/><g fill="#ffffff" fill-opacity="1"><g transform="translate(167.886535, 20.549077)"><g><path d="M 0.9375 0 L 0.9375 -7.53125 L 1.734375 -7.53125 L 1.734375 -4.609375 L 1.828125 -4.59375 C 2.210938 -5.1875 2.769531 -5.484375 3.5 -5.484375 C 4.144531 -5.484375 4.613281 -5.316406 4.90625 -4.984375 C 5.195312 -4.648438 5.34375 -4.144531 5.34375 -3.46875 L 5.34375 0 L 4.546875 0 L 4.546875 -3.4375 C 4.546875 -3.757812 4.503906 -4.019531 4.421875 -4.21875 C 4.335938 -4.414062 4.207031 -4.554688 4.03125 -4.640625 C 3.851562 -4.734375 3.625 -4.78125 3.34375 -4.78125 C 2.863281 -4.78125 2.472656 -4.625 2.171875 -4.3125 C 1.878906 -4 1.734375 -3.484375 1.734375 -2.765625 L 1.734375 0 Z M 0.9375 0 "/></g></g></g><g fill="#ffffff" fill-opacity="1"><g transform="translate(174.081978, 20.549077)"><g><path d="M 5.125 -2.5 L 1.421875 -2.5 C 1.453125 -1.851562 1.609375 -1.375 1.890625 -1.0625 C 2.179688 -0.757812 2.582031 -0.609375 3.09375 -0.609375 C 3.476562 -0.609375 3.785156 -0.675781 4.015625 -0.8125 C 4.253906 -0.945312 4.441406 -1.160156 4.578125 -1.453125 L 4.671875 -1.453125 L 5.1875 -1.15625 C 5.03125 -0.757812 4.78125 -0.445312 4.4375 -0.21875 C 4.09375 0 3.644531 0.109375 3.09375 0.109375 C 2.570312 0.109375 2.125 0.00390625 1.75 -0.203125 C 1.375 -0.410156 1.085938 -0.722656 0.890625 -1.140625 C 0.691406 -1.554688 0.59375 -2.070312 0.59375 -2.6875 C 0.59375 -3.300781 0.695312 -3.816406 0.90625 -4.234375 C 1.125 -4.648438 1.414062 -4.960938 1.78125 -5.171875 C 2.144531 -5.378906 2.566406 -5.484375 3.046875 -5.484375 C 3.734375 -5.484375 4.269531 -5.285156 4.65625 -4.890625 C 5.039062 -4.503906 5.238281 -3.929688 5.25 -3.171875 C 5.25 -2.867188 5.238281 -2.664062 5.21875 -2.5625 Z M 4.453125 -3.171875 C 4.441406 -3.742188 4.316406 -4.160156 4.078125 -4.421875 C 3.835938 -4.679688 3.492188 -4.8125 3.046875 -4.8125 C 2.578125 -4.8125 2.207031 -4.675781 1.9375 -4.40625 C 1.664062 -4.144531 1.503906 -3.734375 1.453125 -3.171875 Z M 4.453125 -3.171875 "/></g></g></g><g fill="#ffffff" fill-opacity="1"><g transform="translate(179.818861, 20.549077)"><g><path d="M 1.078125 2.28125 C 0.890625 2.28125 0.71875 2.265625 0.5625 2.234375 C 0.40625 2.203125 0.269531 2.160156 0.15625 2.109375 L 0.3125 1.484375 L 0.390625 1.453125 C 0.472656 1.484375 0.570312 1.515625 0.6875 1.546875 C 0.800781 1.578125 0.921875 1.59375 1.046875 1.59375 C 1.265625 1.59375 1.441406 1.5625 1.578125 1.5 C 1.722656 1.4375 1.847656 1.335938 1.953125 1.203125 C 2.054688 1.078125 2.15625 0.894531 2.25 0.65625 L 2.4375 0.125 L 0.265625 -5.375 L 1.125 -5.375 L 2.828125 -0.984375 L 2.921875 -0.984375 L 4.546875 -5.375 L 5.375 -5.375 L 2.96875 0.84375 C 2.832031 1.1875 2.675781 1.460938 2.5 1.671875 C 2.332031 1.878906 2.132812 2.03125 1.90625 2.125 C 1.675781 2.226562 1.398438 2.28125 1.078125 2.28125 Z M 1.078125 2.28125 "/></g></g></g><g fill="#008bc1" fill-opacity="1"><g transform="translate(56.164507, 208.823597)"><g><path d="M 6.53125 -5.203125 L 4.203125 -5.203125 L 4.203125 0 L 1.265625 0 L 1.265625 -14.203125 L 6.546875 -14.203125 C 8.222656 -14.203125 9.515625 -13.828125 10.421875 -13.078125 C 11.335938 -12.335938 11.796875 -11.285156 11.796875 -9.921875 C 11.796875 -8.941406 11.582031 -8.128906 11.15625 -7.484375 C 10.738281 -6.835938 10.109375 -6.320312 9.265625 -5.9375 L 12.328125 -0.140625 L 12.328125 0 L 9.1875 0 Z M 4.203125 -7.578125 L 6.5625 -7.578125 C 7.289062 -7.578125 7.859375 -7.757812 8.265625 -8.125 C 8.671875 -8.5 8.875 -9.019531 8.875 -9.6875 C 8.875 -10.351562 8.679688 -10.878906 8.296875 -11.265625 C 7.921875 -11.648438 7.335938 -11.84375 6.546875 -11.84375 L 4.203125 -11.84375 Z M 4.203125 -7.578125 "/></g></g></g><g fill="#008bc1" fill-opacity="1"><g transform="translate(68.916387, 208.823597)"><g><path d="M 7.203125 0 C 7.066406 -0.25 6.972656 -0.566406 6.921875 -0.953125 C 6.234375 -0.191406 5.34375 0.1875 4.25 0.1875 C 3.21875 0.1875 2.359375 -0.109375 1.671875 -0.703125 C 0.992188 -1.296875 0.65625 -2.050781 0.65625 -2.96875 C 0.65625 -4.082031 1.070312 -4.9375 1.90625 -5.53125 C 2.738281 -6.132812 3.9375 -6.441406 5.5 -6.453125 L 6.796875 -6.453125 L 6.796875 -7.0625 C 6.796875 -7.539062 6.671875 -7.925781 6.421875 -8.21875 C 6.171875 -8.519531 5.773438 -8.671875 5.234375 -8.671875 C 4.765625 -8.671875 4.394531 -8.554688 4.125 -8.328125 C 3.851562 -8.097656 3.71875 -7.785156 3.71875 -7.390625 L 0.890625 -7.390625 C 0.890625 -7.992188 1.078125 -8.554688 1.453125 -9.078125 C 1.835938 -9.597656 2.375 -10.003906 3.0625 -10.296875 C 3.75 -10.597656 4.523438 -10.75 5.390625 -10.75 C 6.691406 -10.75 7.722656 -10.421875 8.484375 -9.765625 C 9.242188 -9.117188 9.625 -8.203125 9.625 -7.015625 L 9.625 -2.4375 C 9.632812 -1.4375 9.773438 -0.679688 10.046875 -0.171875 L 10.046875 0 Z M 4.875 -1.96875 C 5.289062 -1.96875 5.671875 -2.054688 6.015625 -2.234375 C 6.367188 -2.421875 6.628906 -2.671875 6.796875 -2.984375 L 6.796875 -4.796875 L 5.75 -4.796875 C 4.332031 -4.796875 3.582031 -4.3125 3.5 -3.34375 L 3.484375 -3.171875 C 3.484375 -2.816406 3.601562 -2.523438 3.84375 -2.296875 C 4.09375 -2.078125 4.4375 -1.96875 4.875 -1.96875 Z M 4.875 -1.96875 "/></g></g></g><g fill="#008bc1" fill-opacity="1"><g transform="translate(79.629137, 208.823597)"><g><path d="M 4.0625 0 L 1.234375 0 L 1.234375 -10.5625 L 4.0625 -10.5625 Z M 1.0625 -13.296875 C 1.0625 -13.710938 1.203125 -14.054688 1.484375 -14.328125 C 1.765625 -14.609375 2.148438 -14.75 2.640625 -14.75 C 3.117188 -14.75 3.5 -14.609375 3.78125 -14.328125 C 4.070312 -14.054688 4.21875 -13.710938 4.21875 -13.296875 C 4.21875 -12.859375 4.070312 -12.503906 3.78125 -12.234375 C 3.5 -11.960938 3.117188 -11.828125 2.640625 -11.828125 C 2.171875 -11.828125 1.789062 -11.960938 1.5 -12.234375 C 1.207031 -12.503906 1.0625 -12.859375 1.0625 -13.296875 Z M 1.0625 -13.296875 "/></g></g></g><g fill="#008bc1" fill-opacity="1"><g transform="translate(84.926973, 208.823597)"><g><path d="M 3.671875 -10.5625 L 3.765625 -9.34375 C 4.523438 -10.28125 5.535156 -10.75 6.796875 -10.75 C 7.921875 -10.75 8.753906 -10.421875 9.296875 -9.765625 C 9.847656 -9.109375 10.128906 -8.128906 10.140625 -6.828125 L 10.140625 0 L 7.3125 0 L 7.3125 -6.75 C 7.3125 -7.351562 7.179688 -7.785156 6.921875 -8.046875 C 6.660156 -8.316406 6.226562 -8.453125 5.625 -8.453125 C 4.832031 -8.453125 4.238281 -8.117188 3.84375 -7.453125 L 3.84375 0 L 1.03125 0 L 1.03125 -10.5625 Z M 3.671875 -10.5625 "/></g></g></g><g fill="#008bc1" fill-opacity="1"><g transform="translate(96.117797, 208.823597)"><g><path d="M 5.03125 -3.984375 L 6.984375 -10.5625 L 10 -10.5625 L 5.75 1.640625 L 5.515625 2.203125 C 4.890625 3.578125 3.851562 4.265625 2.40625 4.265625 C 1.988281 4.265625 1.570312 4.203125 1.15625 4.078125 L 1.15625 1.9375 L 1.578125 1.953125 C 2.109375 1.953125 2.503906 1.867188 2.765625 1.703125 C 3.035156 1.546875 3.242188 1.273438 3.390625 0.890625 L 3.734375 0.03125 L 0.03125 -10.5625 L 3.0625 -10.5625 Z M 5.03125 -3.984375 "/></g></g></g><g fill="#008bc1" fill-opacity="1"><g transform="translate(106.147585, 208.823597)"><g/></g></g><g fill="#008bc1" fill-opacity="1"><g transform="translate(111.123452, 208.823597)"><g><path d="M 8.640625 -3.734375 C 8.640625 -4.285156 8.441406 -4.707031 8.046875 -5 C 7.660156 -5.289062 6.957031 -5.601562 5.9375 -5.9375 C 4.925781 -6.269531 4.125 -6.59375 3.53125 -6.90625 C 1.914062 -7.78125 1.109375 -8.957031 1.109375 -10.4375 C 1.109375 -11.195312 1.320312 -11.878906 1.75 -12.484375 C 2.1875 -13.085938 2.8125 -13.554688 3.625 -13.890625 C 4.4375 -14.234375 5.347656 -14.40625 6.359375 -14.40625 C 7.367188 -14.40625 8.269531 -14.21875 9.0625 -13.84375 C 9.851562 -13.476562 10.46875 -12.960938 10.90625 -12.296875 C 11.351562 -11.628906 11.578125 -10.867188 11.578125 -10.015625 L 8.640625 -10.015625 C 8.640625 -10.660156 8.4375 -11.164062 8.03125 -11.53125 C 7.625 -11.894531 7.046875 -12.078125 6.296875 -12.078125 C 5.585938 -12.078125 5.035156 -11.921875 4.640625 -11.609375 C 4.242188 -11.304688 4.046875 -10.910156 4.046875 -10.421875 C 4.046875 -9.960938 4.273438 -9.578125 4.734375 -9.265625 C 5.203125 -8.953125 5.890625 -8.65625 6.796875 -8.375 C 8.460938 -7.875 9.675781 -7.253906 10.4375 -6.515625 C 11.195312 -5.773438 11.578125 -4.851562 11.578125 -3.75 C 11.578125 -2.519531 11.109375 -1.554688 10.171875 -0.859375 C 9.242188 -0.160156 7.992188 0.1875 6.421875 0.1875 C 5.328125 0.1875 4.332031 -0.0078125 3.4375 -0.40625 C 2.539062 -0.800781 1.851562 -1.347656 1.375 -2.046875 C 0.90625 -2.742188 0.671875 -3.550781 0.671875 -4.46875 L 3.609375 -4.46875 C 3.609375 -2.90625 4.546875 -2.125 6.421875 -2.125 C 7.117188 -2.125 7.660156 -2.265625 8.046875 -2.546875 C 8.441406 -2.828125 8.640625 -3.222656 8.640625 -3.734375 Z M 8.640625 -3.734375 "/></g></g></g><g fill="#008bc1" fill-opacity="1"><g transform="translate(123.407016, 208.823597)"><g><path d="M 4.453125 -13.15625 L 4.453125 -10.5625 L 6.265625 -10.5625 L 6.265625 -8.484375 L 4.453125 -8.484375 L 4.453125 -3.21875 C 4.453125 -2.832031 4.523438 -2.550781 4.671875 -2.375 C 4.828125 -2.207031 5.117188 -2.125 5.546875 -2.125 C 5.859375 -2.125 6.132812 -2.148438 6.375 -2.203125 L 6.375 -0.0625 C 5.820312 0.101562 5.253906 0.1875 4.671875 0.1875 C 2.691406 0.1875 1.679688 -0.804688 1.640625 -2.796875 L 1.640625 -8.484375 L 0.09375 -8.484375 L 0.09375 -10.5625 L 1.640625 -10.5625 L 1.640625 -13.15625 Z M 4.453125 -13.15625 "/></g></g></g><g fill="#008bc1" fill-opacity="1"><g transform="translate(130.158585, 208.823597)"><g><path d="M 7.203125 0 C 7.066406 -0.25 6.972656 -0.566406 6.921875 -0.953125 C 6.234375 -0.191406 5.34375 0.1875 4.25 0.1875 C 3.21875 0.1875 2.359375 -0.109375 1.671875 -0.703125 C 0.992188 -1.296875 0.65625 -2.050781 0.65625 -2.96875 C 0.65625 -4.082031 1.070312 -4.9375 1.90625 -5.53125 C 2.738281 -6.132812 3.9375 -6.441406 5.5 -6.453125 L 6.796875 -6.453125 L 6.796875 -7.0625 C 6.796875 -7.539062 6.671875 -7.925781 6.421875 -8.21875 C 6.171875 -8.519531 5.773438 -8.671875 5.234375 -8.671875 C 4.765625 -8.671875 4.394531 -8.554688 4.125 -8.328125 C 3.851562 -8.097656 3.71875 -7.785156 3.71875 -7.390625 L 0.890625 -7.390625 C 0.890625 -7.992188 1.078125 -8.554688 1.453125 -9.078125 C 1.835938 -9.597656 2.375 -10.003906 3.0625 -10.296875 C 3.75 -10.597656 4.523438 -10.75 5.390625 -10.75 C 6.691406 -10.75 7.722656 -10.421875 8.484375 -9.765625 C 9.242188 -9.117188 9.625 -8.203125 9.625 -7.015625 L 9.625 -2.4375 C 9.632812 -1.4375 9.773438 -0.679688 10.046875 -0.171875 L 10.046875 0 Z M 4.875 -1.96875 C 5.289062 -1.96875 5.671875 -2.054688 6.015625 -2.234375 C 6.367188 -2.421875 6.628906 -2.671875 6.796875 -2.984375 L 6.796875 -4.796875 L 5.75 -4.796875 C 4.332031 -4.796875 3.582031 -4.3125 3.5 -3.34375 L 3.484375 -3.171875 C 3.484375 -2.816406 3.601562 -2.523438 3.84375 -2.296875 C 4.09375 -2.078125 4.4375 -1.96875 4.875 -1.96875 Z M 4.875 -1.96875 "/></g></g></g><g fill="#008bc1" fill-opacity="1"><g transform="translate(140.871336, 208.823597)"><g><path d="M 4.453125 -13.15625 L 4.453125 -10.5625 L 6.265625 -10.5625 L 6.265625 -8.484375 L 4.453125 -8.484375 L 4.453125 -3.21875 C 4.453125 -2.832031 4.523438 -2.550781 4.671875 -2.375 C 4.828125 -2.207031 5.117188 -2.125 5.546875 -2.125 C 5.859375 -2.125 6.132812 -2.148438 6.375 -2.203125 L 6.375 -0.0625 C 5.820312 0.101562 5.253906 0.1875 4.671875 0.1875 C 2.691406 0.1875 1.679688 -0.804688 1.640625 -2.796875 L 1.640625 -8.484375 L 0.09375 -8.484375 L 0.09375 -10.5625 L 1.640625 -10.5625 L 1.640625 -13.15625 Z M 4.453125 -13.15625 "/></g></g></g><g fill="#008bc1" fill-opacity="1"><g transform="translate(147.622905, 208.823597)"><g><path d="M 5.9375 0.1875 C 4.394531 0.1875 3.132812 -0.285156 2.15625 -1.234375 C 1.1875 -2.179688 0.703125 -3.445312 0.703125 -5.03125 L 0.703125 -5.296875 C 0.703125 -6.359375 0.90625 -7.304688 1.3125 -8.140625 C 1.726562 -8.972656 2.3125 -9.613281 3.0625 -10.0625 C 3.8125 -10.519531 4.664062 -10.75 5.625 -10.75 C 7.070312 -10.75 8.207031 -10.289062 9.03125 -9.375 C 9.863281 -8.46875 10.28125 -7.179688 10.28125 -5.515625 L 10.28125 -4.359375 L 3.5625 -4.359375 C 3.65625 -3.671875 3.929688 -3.117188 4.390625 -2.703125 C 4.847656 -2.285156 5.425781 -2.078125 6.125 -2.078125 C 7.207031 -2.078125 8.054688 -2.472656 8.671875 -3.265625 L 10.0625 -1.703125 C 9.632812 -1.109375 9.0625 -0.644531 8.34375 -0.3125 C 7.625 0.0195312 6.820312 0.1875 5.9375 0.1875 Z M 5.625 -8.46875 C 5.0625 -8.46875 4.601562 -8.28125 4.25 -7.90625 C 3.90625 -7.53125 3.6875 -6.988281 3.59375 -6.28125 L 7.515625 -6.28125 L 7.515625 -6.515625 C 7.503906 -7.140625 7.332031 -7.617188 7 -7.953125 C 6.675781 -8.296875 6.21875 -8.46875 5.625 -8.46875 Z M 5.625 -8.46875 "/></g></g></g><g fill="#008bc1" fill-opacity="1"><g transform="translate(158.423465, 208.823597)"><g><path d="M 6.796875 -2.921875 C 6.796875 -3.265625 6.625 -3.535156 6.28125 -3.734375 C 5.945312 -3.929688 5.398438 -4.109375 4.640625 -4.265625 C 2.128906 -4.785156 0.875 -5.851562 0.875 -7.46875 C 0.875 -8.40625 1.257812 -9.1875 2.03125 -9.8125 C 2.8125 -10.4375 3.832031 -10.75 5.09375 -10.75 C 6.4375 -10.75 7.507812 -10.429688 8.3125 -9.796875 C 9.113281 -9.171875 9.515625 -8.351562 9.515625 -7.34375 L 6.6875 -7.34375 C 6.6875 -7.75 6.554688 -8.082031 6.296875 -8.34375 C 6.035156 -8.613281 5.628906 -8.75 5.078125 -8.75 C 4.609375 -8.75 4.242188 -8.640625 3.984375 -8.421875 C 3.722656 -8.203125 3.59375 -7.925781 3.59375 -7.59375 C 3.59375 -7.289062 3.738281 -7.039062 4.03125 -6.84375 C 4.332031 -6.65625 4.832031 -6.488281 5.53125 -6.34375 C 6.238281 -6.207031 6.832031 -6.050781 7.3125 -5.875 C 8.800781 -5.320312 9.546875 -4.375 9.546875 -3.03125 C 9.546875 -2.070312 9.128906 -1.296875 8.296875 -0.703125 C 7.472656 -0.109375 6.410156 0.1875 5.109375 0.1875 C 4.222656 0.1875 3.4375 0.03125 2.75 -0.28125 C 2.0625 -0.59375 1.519531 -1.023438 1.125 -1.578125 C 0.738281 -2.128906 0.546875 -2.722656 0.546875 -3.359375 L 3.21875 -3.359375 C 3.25 -2.859375 3.4375 -2.472656 3.78125 -2.203125 C 4.125 -1.941406 4.582031 -1.8125 5.15625 -1.8125 C 5.695312 -1.8125 6.101562 -1.910156 6.375 -2.109375 C 6.65625 -2.316406 6.796875 -2.585938 6.796875 -2.921875 Z M 6.796875 -2.921875 "/></g></g></g></svg>